<?xml version="1.0" encoding="UTF-8" standalone="no"?>
<svg width="23px" height="23px" viewBox="0 0 23 23" version="1.1" xmlns="http://www.w3.org/2000/svg" xmlns:xlink="http://www.w3.org/1999/xlink" xmlns:sketch="http://www.bohemiancoding.com/sketch/ns">
    <!-- Generator: Sketch 3.4.4 (17249) - http://www.bohemiancoding.com/sketch -->
    <title>Group 6</title>
    <desc>Created with Sketch.</desc>
    <defs>
        <path id="path-1" d="M0,0.0582625414 L41,0.0582625414 L41,41.2456656 L0,41.2456656 L0,0.0582625414 Z"></path>
    </defs>
    <g id="Page-1" stroke="none" stroke-width="1" fill="none" fill-rule="evenodd" sketch:type="MSPage">
        <g id="Consulta-1" sketch:type="MSArtboardGroup" transform="translate(-183.000000, -238.000000)">
            <g id="aside-copy" sketch:type="MSLayerGroup" transform="translate(0.000000, 77.000000)">
                <g id="Group-6" transform="translate(165.000000, 142.183938)">
                    <mask id="mask-2" sketch:name="Clip 5" fill="white">
                        <use xlink:href="#path-1"></use>
                    </mask>
                    <g id="Clip-5"></g>
                    <path d="M27.6182098,34.0934727 C31.1961217,34.0177881 33.8758849,31.2946828 33.9182489,27.8705633 C33.9649456,24.0962202 31.1528751,21.4077159 27.6751765,21.4033402 C24.0799339,21.3987213 21.3691198,24.1265265 21.3764211,27.7645725 C21.383562,31.3019758 24.029065,33.9573377 27.6182098,34.0934727 L27.6182098,34.0934727 Z M41.000016,39.2781096 C40.7377284,39.9824462 40.1652528,40.4368778 39.6415601,40.9093797 C39.0673194,41.4275841 38.1093957,41.3279949 37.5211139,40.7406696 C36.2095151,39.4310994 34.8952685,38.1234741 33.6155229,36.7824632 C33.2411472,36.3901027 33.0279632,35.8818653 33.2112998,35.2889488 C33.31729,34.9460182 33.2970708,34.9396166 33.0229886,34.6769895 C31.17502,36.1799848 29.0255288,36.7167457 26.7080258,36.504764 C24.6707832,36.3184697 22.8776951,35.4511763 21.4551315,33.9720857 C17.6941237,30.0616076 18.2962059,24.1986456 21.9768184,21.0274293 C25.2838575,18.1779129 30.1042059,18.2629163 33.272198,20.9866698 C37.2617147,24.4167858 37.0838341,30.0050468 34.5237812,33.1538981 C34.6519965,33.4045323 34.8382215,33.4508831 35.1020337,33.3674193 C35.7160708,33.1732649 36.2390415,33.3886499 36.6715875,33.8200682 C37.9460376,35.0909047 39.2140689,36.3684669 40.4674172,37.660453 C40.6875816,37.8873447 40.8245425,38.1965656 41.000016,38.4677822 L41.000016,39.2781096 Z" id="Fill-4" fill="#FFFFFF" sketch:type="MSShapeGroup" mask="url(#mask-2)"></path>
                </g>
            </g>
        </g>
    </g>
</svg>