<?xml version="1.0" encoding="UTF-8" standalone="no"?>
<svg width="26px" height="25px" viewBox="0 0 26 25" version="1.1" xmlns="http://www.w3.org/2000/svg" xmlns:xlink="http://www.w3.org/1999/xlink" xmlns:sketch="http://www.bohemiancoding.com/sketch/ns">
    <!-- Generator: Sketch 3.4.4 (17249) - http://www.bohemiancoding.com/sketch -->
    <title>calendar166</title>
    <desc>Created with Sketch.</desc>
    <defs></defs>
    <g id="Page-1" stroke="none" stroke-width="1" fill="none" fill-rule="evenodd" sketch:type="MSPage">
        <g id="Consulta-1-Copy" sketch:type="MSArtboardGroup" transform="translate(-292.000000, -105.000000)" fill="#4990E2">
            <g id="Submenu-de-consultas" sketch:type="MSLayerGroup" transform="translate(292.000000, 97.000000)">
                <g id="calendar166" transform="translate(0.000000, 8.000000)" sketch:type="MSShapeGroup">
                    <g id="Capa_1">
                        <g id="Group">
                            <path d="M25.1403333,2.51790541 C24.777,2.14189189 24.3436667,1.94797297 23.8123333,1.94797297 L18.2343333,1.94797297 L18.2343333,0.870945946 C18.2343333,0.380067568 17.8593333,0 17.375,0 C16.8906667,0 16.5156667,0.380067568 16.5156667,0.870945946 L16.5156667,1.94797297 L9.18766667,1.94797297 L9.18766667,0.870945946 C9.18766667,0.380067568 8.797,0 8.31266667,0 C7.828,0 7.45333333,0.380067568 7.45333333,0.870945946 L7.45333333,1.94797297 L1.89066667,1.94797297 C1.35966667,1.94797297 0.910333333,2.14189189 0.547,2.51790541 C0.191666667,2.88614865 0,3.34155405 0,3.86418919 L0,22.9621622 C0,23.4847973 0.183666667,23.947973 0.547,24.3239865 C0.902333333,24.6922297 1.35966667,24.8783784 1.89066667,24.8783784 L23.8123333,24.8783784 C24.3436667,24.8783784 24.785,24.6922297 25.1403333,24.3239865 C25.5036667,23.9476351 25.6873333,23.4847973 25.6873333,22.9621622 L25.6873333,3.86418919 C25.6873333,3.34155405 25.496,2.88614865 25.1403333,2.51790541 L25.1403333,2.51790541 Z M23.9686667,22.9621622 C23.9686667,23.072973 23.9216667,23.1206081 23.8123333,23.1206081 L1.89066667,23.1206081 C1.81266667,23.1206081 1.719,23.0256757 1.719,22.9621622 L1.719,10.0875 L23.9686667,10.0875 L23.9686667,22.9621622 L23.9686667,22.9621622 Z M23.9686667,8.34560811 L1.719,8.34560811 L1.719,3.86418919 C1.719,3.75337838 1.78133333,3.70574324 1.89066667,3.70574324 L7.45333333,3.70574324 L7.45333333,4.08581081 C7.45333333,4.57668919 7.828,4.97263514 8.31266667,4.97263514 C8.797,4.97263514 9.18766667,4.57668919 9.18766667,4.08581081 L9.18766667,3.70574324 L16.5156667,3.70574324 L16.5156667,4.08581081 C16.5156667,4.57668919 16.8906667,4.97263514 17.375,4.97263514 C17.8593333,4.97263514 18.2343333,4.57668919 18.2343333,4.08581081 L18.2343333,3.70574324 L23.8123333,3.70574324 C23.9216667,3.70574324 23.9686667,3.75337838 23.9686667,3.86418919 L23.9686667,8.34560811 L23.9686667,8.34560811 Z" id="Shape"></path>
                            <rect id="Rectangle-path" x="9.25" y="12.4631757" width="3.76566667" height="3.7847973"></rect>
                            <rect id="Rectangle-path" x="4.15633333" y="12.4631757" width="3.78133333" height="3.7847973"></rect>
                            <rect id="Rectangle-path" x="4.15633333" y="17.5780405" width="3.78133333" height="3.83243243"></rect>
                        </g>
                    </g>
                </g>
            </g>
        </g>
    </g>
</svg>