<?xml version="1.0" encoding="UTF-8" standalone="no"?>
<svg width="46px" height="46px" viewBox="0 0 46 46" version="1.1" xmlns="http://www.w3.org/2000/svg" xmlns:xlink="http://www.w3.org/1999/xlink" xmlns:sketch="http://www.bohemiancoding.com/sketch/ns">
    <!-- Generator: Sketch 3.4.4 (17249) - http://www.bohemiancoding.com/sketch -->
    <title>Oval 11 + Page 1 Copy 4 + document168 + Rectangle 333</title>
    <desc>Created with Sketch.</desc>
    <defs></defs>
    <g id="Page-1" stroke="none" stroke-width="1" fill="none" fill-rule="evenodd" sketch:type="MSPage">
        <g id="Diagnóstico" sketch:type="MSArtboardGroup" transform="translate(-1122.000000, -792.000000)">
            <g id="Oval-11-+-Page-1-Copy-4-+-document168-+-Rectangle-333" sketch:type="MSLayerGroup" transform="translate(1122.000000, 792.000000)">
                <g id="Oval-11-+-Page-1-Copy-4-+-document168" sketch:type="MSShapeGroup">
                    <g id="Oval-11-+-Page-1-Copy-4" fill="#FFFFFF">
                        <path d="M23,46 C35.7025492,46 46,35.7025492 46,23 C46,10.2974508 35.7025492,0 23,0 C10.2974508,0 0,10.2974508 0,23 C0,35.7025492 10.2974508,46 23,46 Z" id="Oval-11"></path>
                    </g>
                    <g id="document168" transform="translate(13.000000, 7.000000)" fill="#00B0B3">
                        <g id="Capa_1">
                            <path d="M19.83375,10.488125 L9.3896875,0.029375 L9.3603125,0 L7.7784375,0 L1.7725,0 C1.274375,0 0.8496875,0.175625 0.5128125,0.5128125 C0.1759375,0.8496875 0,1.274375 0,1.7578125 L0,28.1684375 C0,29.1646875 0.7765625,29.92625 1.7725,29.92625 L18.090625,29.92625 C18.5740625,29.92625 18.9953125,29.746875 19.335625,29.41375 C19.68375,29.073125 19.863125,28.6665625 19.863125,28.1684375 L19.863125,12.1140625 L19.863125,10.488125 L19.83375,10.488125 L19.83375,10.488125 Z M9.3896875,2.3290625 L17.54875,10.488125 L9.5359375,10.488125 C9.4334375,10.488125 9.3896875,10.4440625 9.3896875,10.3415625 L9.3896875,2.3290625 L9.3896875,2.3290625 Z M18.2371875,28.1684375 C18.2371875,28.27125 18.193125,28.315 18.090625,28.315 L1.7725,28.315 C1.67,28.315 1.6259375,28.27125 1.6259375,28.1684375 L1.6259375,1.7578125 C1.6259375,1.6553125 1.67,1.61125 1.7725,1.61125 L7.7784375,1.61125 L7.7784375,10.3415625 C7.7784375,10.825 7.935625,11.2534375 8.27625,11.60125 C8.6096875,11.941875 9.038125,12.1140625 9.5359375,12.1140625 L18.2371875,12.1140625 L18.2371875,28.1684375 L18.2371875,28.1684375 Z" id="Shape"></path>
                        </g>
                    </g>
                </g>
                <path d="M23.5416622,25.5750553 L23.5416622,23 L21.5416622,23 L21.5416622,25.5750553 L19,25.5750553 L19,27.5750553 L21.5416622,27.5750553 L21.5416622,30 L23.5416622,30 L23.5416622,27.5750553 L26,27.5750553 L26,25.5750553 L23.5416622,25.5750553 Z" id="Rectangle-333" fill="#008D8F" sketch:type="MSShapeGroup" transform="translate(22.500000, 26.500000) rotate(-315.000000) translate(-22.500000, -26.500000) "></path>
            </g>
        </g>
    </g>
</svg>