<?xml version="1.0" encoding="UTF-8" standalone="no"?>
<svg width="17px" height="34px" viewBox="0 0 17 34" version="1.1" xmlns="http://www.w3.org/2000/svg" xmlns:xlink="http://www.w3.org/1999/xlink" xmlns:sketch="http://www.bohemiancoding.com/sketch/ns">
    <!-- Generator: Sketch 3.4.4 (17249) - http://www.bohemiancoding.com/sketch -->
    <title>Page 1 Copy 2</title>
    <desc>Created with Sketch.</desc>
    <defs>
        <path id="path-1" d="M0,0.147321429 L15.7,0.147321429 L15.7,33 L0,33 L0,0.147321429 Z"></path>
    </defs>
    <g id="Page-1" stroke="none" stroke-width="1" fill="none" fill-rule="evenodd" sketch:type="MSPage">
        <g id="Consulta-1-Copy" sketch:type="MSArtboardGroup" transform="translate(-444.000000, -97.000000)">
            <g id="Submenu-de-consultas" sketch:type="MSLayerGroup" transform="translate(292.000000, 97.000000)">
                <g id="Page-1-Copy-2" transform="translate(153.000000, 0.000000)">
                    <path d="M11.6,19.2045857 L11.6,4.4198 C11.6,2.39383571 9.9124,0.736764286 7.85,0.736764286 C5.7876,0.736764286 4.1,2.39383571 4.1,4.4198 L4.1,19.2045857 C2.0048,20.4526929 0.6,22.7076929 0.6,25.2903357 C0.6,29.2228357 3.846,32.4108714 7.85,32.4108714 C11.854,32.4108714 15.1,29.2228357 15.1,25.2903357 C15.1,22.7076929 13.6952,20.4526929 11.6,19.2045857 L11.6,19.2045857 Z" id="Stroke-1" stroke="#BE1E2C" stroke-width="1.47000003" sketch:type="MSShapeGroup"></path>
                    <mask id="mask-2" sketch:name="Clip 4" fill="white">
                        <use xlink:href="#path-1"></use>
                    </mask>
                    <g id="Clip-4"></g>
                    <path d="M11.8248,17.2028214 L8.5996,17.2028214 L8.5996,16.3923571 L11.8248,16.3923571 L11.8248,17.2028214 Z" id="Fill-3" fill="#BE1E2C" sketch:type="MSShapeGroup" mask="url(#mask-2)"></path>
                    <path d="M11.8248,14.7726071 L8.5996,14.7726071 L8.5996,13.9621429 L11.8248,13.9621429 L11.8248,14.7726071 Z" id="Fill-5" fill="#BE1E2C" sketch:type="MSShapeGroup" mask="url(#mask-2)"></path>
                    <path d="M11.8248,12.3423929 L8.5996,12.3423929 L8.5996,11.5319286 L11.8248,11.5319286 L11.8248,12.3423929 Z" id="Fill-6" fill="#BE1E2C" sketch:type="MSShapeGroup" mask="url(#mask-2)"></path>
                    <path d="M11.8248,9.96835714 L8.5996,9.96835714 L8.5996,9.15789286 L11.8248,9.15789286 L11.8248,9.96835714 Z" id="Fill-7" fill="#BE1E2C" sketch:type="MSShapeGroup" mask="url(#mask-2)"></path>
                    <path d="M11.8248,7.59471429 L8.5996,7.59471429 L8.5996,6.78425 L11.8248,6.78425 L11.8248,7.59471429 Z" id="Fill-8" fill="#BE1E2C" sketch:type="MSShapeGroup" mask="url(#mask-2)"></path>
                    <path d="M11.8248,5.31142857 L8.5996,5.31142857 L8.5996,4.50096429 L11.8248,4.50096429 L11.8248,5.31142857 Z" id="Fill-9" fill="#BE1E2C" sketch:type="MSShapeGroup" mask="url(#mask-2)"></path>
                    <path d="M7.64176,30.4744 C10.92456,30.4744 13.02456,28.1219714 13.02456,24.7045071" id="Stroke-10" stroke="#BE1E2C" stroke-width="1.47000003" sketch:type="MSShapeGroup" mask="url(#mask-2)"></path>
                </g>
            </g>
        </g>
    </g>
</svg>