<?xml version="1.0" encoding="UTF-8" standalone="no"?>
<svg width="22px" height="21px" viewBox="0 0 22 21" version="1.1" xmlns="http://www.w3.org/2000/svg" xmlns:xlink="http://www.w3.org/1999/xlink" xmlns:sketch="http://www.bohemiancoding.com/sketch/ns">
    <!-- Generator: Sketch 3.4.4 (17249) - http://www.bohemiancoding.com/sketch -->
    <title>calendar166 copy 3</title>
    <desc>Created with Sketch.</desc>
    <defs></defs>
    <g id="Page-1" stroke="none" stroke-width="1" fill="none" fill-rule="evenodd" sketch:type="MSPage">
        <g id="Consulta-1-Copy" sketch:type="MSArtboardGroup" transform="translate(-402.000000, -235.000000)" fill="#4A4A4A">
            <g id="calendar166-copy-3" sketch:type="MSLayerGroup" transform="translate(402.000000, 235.000000)">
                <g id="Capa_1" sketch:type="MSShapeGroup">
                    <g id="Group">
                        <path d="M21.2725897,2.11504054 C20.9651538,1.79918919 20.5984872,1.6362973 20.1488974,1.6362973 L15.4290513,1.6362973 L15.4290513,0.731594595 C15.4290513,0.319256757 15.1117436,0 14.7019231,0 C14.2921026,0 13.9747949,0.319256757 13.9747949,0.731594595 L13.9747949,1.6362973 L7.77417949,1.6362973 L7.77417949,0.731594595 C7.77417949,0.319256757 7.44361538,0 7.03379487,0 C6.62369231,0 6.30666667,0.319256757 6.30666667,0.731594595 L6.30666667,1.6362973 L1.59979487,1.6362973 C1.15048718,1.6362973 0.770282051,1.79918919 0.462846154,2.11504054 C0.162179487,2.42436486 0,2.80690541 0,3.24591892 L0,19.2882162 C0,19.7272297 0.155410256,20.1162973 0.462846154,20.4321486 C0.763512821,20.741473 1.15048718,20.8978378 1.59979487,20.8978378 L20.1488974,20.8978378 C20.5984872,20.8978378 20.9719231,20.741473 21.2725897,20.4321486 C21.5800256,20.1160135 21.7354359,19.7272297 21.7354359,19.2882162 L21.7354359,3.24591892 C21.7354359,2.80690541 21.5735385,2.42436486 21.2725897,2.11504054 L21.2725897,2.11504054 Z M20.2811795,19.2882162 C20.2811795,19.3812973 20.2414103,19.4213108 20.1488974,19.4213108 L1.59979487,19.4213108 C1.53379487,19.4213108 1.45453846,19.3415676 1.45453846,19.2882162 L1.45453846,8.4735 L20.2811795,8.4735 L20.2811795,19.2882162 L20.2811795,19.2882162 Z M20.2811795,7.01031081 L1.45453846,7.01031081 L1.45453846,3.24591892 C1.45453846,3.15283784 1.50728205,3.11282432 1.59979487,3.11282432 L6.30666667,3.11282432 L6.30666667,3.43208108 C6.30666667,3.84441892 6.62369231,4.17701351 7.03379487,4.17701351 C7.44361538,4.17701351 7.77417949,3.84441892 7.77417949,3.43208108 L7.77417949,3.11282432 L13.9747949,3.11282432 L13.9747949,3.43208108 C13.9747949,3.84441892 14.2921026,4.17701351 14.7019231,4.17701351 C15.1117436,4.17701351 15.4290513,3.84441892 15.4290513,3.43208108 L15.4290513,3.11282432 L20.1488974,3.11282432 C20.2414103,3.11282432 20.2811795,3.15283784 20.2811795,3.24591892 L20.2811795,7.01031081 L20.2811795,7.01031081 Z" id="Shape"></path>
                        <rect id="Rectangle-path" x="7.82692308" y="10.4690676" width="3.18633333" height="3.17922973"></rect>
                        <rect id="Rectangle-path" x="3.51689744" y="10.4690676" width="3.19958974" height="3.17922973"></rect>
                        <rect id="Rectangle-path" x="3.51689744" y="14.7655541" width="3.19958974" height="3.21924324"></rect>
                    </g>
                </g>
            </g>
        </g>
    </g>
</svg>