<?xml version="1.0" encoding="UTF-8" standalone="no"?>
<svg width="38px" height="32px" viewBox="0 0 38 32" version="1.1" xmlns="http://www.w3.org/2000/svg" xmlns:xlink="http://www.w3.org/1999/xlink" xmlns:sketch="http://www.bohemiancoding.com/sketch/ns">
    <!-- Generator: Sketch 3.4.4 (17249) - http://www.bohemiancoding.com/sketch -->
    <title>Page 1</title>
    <desc>Created with Sketch.</desc>
    <defs>
        <path id="path-1" d="M0,0.0198481013 L37.9591398,0.0198481013 L37.9591398,32 L0,32 L0,0.0198481013 Z"></path>
    </defs>
    <g id="Page-1" stroke="none" stroke-width="1" fill="none" fill-rule="evenodd" sketch:type="MSPage">
        <g id="Desktop-Landscape-Copy" sketch:type="MSArtboardGroup" transform="translate(-635.000000, -102.000000)">
            <g id="Page-1" sketch:type="MSLayerGroup" transform="translate(635.000000, 102.000000)">
                <g id="Group-3">
                    <mask id="mask-2" sketch:name="Clip 2" fill="white">
                        <use xlink:href="#path-1"></use>
                    </mask>
                    <g id="Clip-2"></g>
                    <path d="M37.9592624,31.6494582 C37.7892839,31.9334076 37.5253269,31.9982177 37.2115204,31.9982177 C25.3971978,31.9945722 13.5832839,31.9929519 1.76896129,31.999838 C0.854101075,32.0006481 0.288187097,31.583838 0.000122580645,30.7477873 L0.000122580645,0.390724051 C0.274703226,0.0537113924 0.91007957,-0.0994025316 1.2770043,0.127432911 C1.4093914,0.209255696 1.48743441,0.403686076 1.54995054,0.562470886 C1.59162796,0.667382278 1.56343441,0.799837975 1.56343441,0.919736709 C1.56384301,10.4776101 1.56384301,20.0354835 1.56425161,29.593357 C1.56425161,29.7233823 1.55607957,29.855838 1.57569247,29.9834329 C1.6185957,30.2633316 1.77672473,30.438319 2.07623011,30.4533063 C2.23762796,30.4614076 2.39943441,30.4585722 2.56083226,30.4585722 C14.0924022,30.4589772 25.6235634,30.4593823 37.1547247,30.4557367 C37.4844667,30.4557367 37.7815204,30.4869266 37.9592624,30.8077367 L37.9592624,31.6494582 Z" id="Fill-1" fill="#6FAE2E" sketch:type="MSShapeGroup" mask="url(#mask-2)"></path>
                </g>
                <path d="M21.8323075,16.0196861 C21.8323075,20.0366987 21.8323075,24.0533063 21.8318989,28.070319 C21.8318989,28.1902177 21.8368022,28.3117367 21.8220925,28.4304203 C21.7865441,28.7172051 21.6157484,28.8796354 21.322372,28.8930025 C21.0498344,28.9055595 20.7768882,28.8998886 20.5039419,28.8998886 C18.766157,28.9002937 17.0279634,28.9011038 15.2901785,28.8994835 C14.7181355,28.8990785 14.5657269,28.7520405 14.5653183,28.1914329 C14.5645011,20.0776101 14.5645011,11.9637873 14.5653183,3.85036962 C14.5653183,3.29057215 14.7185441,3.14150886 15.2885441,3.1411038 C17.1983505,3.13988861 19.1077484,3.14029367 21.0175548,3.14069873 C21.7178989,3.1411038 21.8318989,3.25290127 21.8318989,3.93907848 C21.8323075,7.96581266 21.8323075,11.9929519 21.8323075,16.0196861" id="Fill-4" fill="#6FAE2E" sketch:type="MSShapeGroup"></path>
                <path d="M11.957129,18.0921114 C11.9575376,21.4468456 11.9575376,24.8015797 11.9575376,28.1563139 C11.957129,28.7537823 11.8108495,28.8996051 11.2057097,28.9000101 C9.27629032,28.9008203 7.34687097,28.9008203 5.41745161,28.9000101 C4.84173118,28.8996051 4.67543011,28.7351494 4.67543011,28.1713013 C4.67502151,21.4517063 4.67502151,14.7321114 4.67502151,8.01292152 C4.67502151,7.42638987 4.84009677,7.26071899 5.43216129,7.26031392 C7.36117204,7.25869367 9.2905914,7.25869367 11.2200108,7.26031392 C11.7896022,7.26071899 11.9563118,7.42882025 11.9563118,7.99793418 C11.957129,11.3627949 11.9567204,14.7272506 11.957129,18.0921114" id="Fill-6" fill="#6FAE2E" sketch:type="MSShapeGroup"></path>
                <path d="M31.711286,21.9749671 C31.711286,24.0379544 31.7116946,26.1013468 31.7108774,28.1643342 C31.7108774,28.7524861 31.5658237,28.8995241 30.9843828,28.8999291 C29.0443398,28.9007392 27.1047054,28.9011443 25.165071,28.8999291 C24.6016086,28.8995241 24.4442968,28.7443848 24.4442968,28.1858025 C24.4434796,24.0294481 24.4434796,19.8730937 24.4447054,15.7167392 C24.4447054,15.1476253 24.6069204,14.9928911 25.1899957,14.9928911 C27.1096086,14.9924861 29.0292215,14.9924861 30.9488344,14.9932962 C31.5731785,14.9932962 31.7108774,15.1318278 31.711286,15.7552203 C31.7116946,17.8287392 31.711286,19.9018532 31.711286,21.9749671" id="Fill-8" fill="#6FAE2E" sketch:type="MSShapeGroup"></path>
            </g>
        </g>
    </g>
</svg>