<?xml version="1.0" encoding="UTF-8" standalone="no"?>
<svg width="30px" height="24px" viewBox="0 0 30 24" version="1.1" xmlns="http://www.w3.org/2000/svg" xmlns:xlink="http://www.w3.org/1999/xlink" xmlns:sketch="http://www.bohemiancoding.com/sketch/ns">
    <!-- Generator: Sketch 3.4.4 (17249) - http://www.bohemiancoding.com/sketch -->
    <title>Page 1</title>
    <desc>Created with Sketch.</desc>
    <defs>
        <path id="path-1" d="M0,0 L30,0 L30,24 L0,24"></path>
    </defs>
    <g id="Page-1" stroke="none" stroke-width="1" fill="none" fill-rule="evenodd" sketch:type="MSPage">
        <g id="Consulta-1-Copy" sketch:type="MSArtboardGroup" transform="translate(-1074.000000, -101.000000)">
            <g id="Submenu-de-consultas" sketch:type="MSLayerGroup" transform="translate(292.000000, 97.000000)">
                <g id="Page-1" transform="translate(782.000000, 4.000000)">
                    <g id="Group-3">
                        <mask id="mask-2" sketch:name="Clip 2" fill="white">
                            <use xlink:href="#path-1"></use>
                        </mask>
                        <g id="Clip-2"></g>
                        <path d="M14.9361797,21.7419594 C18.9748125,21.7606261 22.2751641,18.5190029 22.2936797,14.5154087 C22.3123125,10.4759884 19.0737188,7.18694493 15.0603984,7.16978551 C10.9673906,7.15227826 7.6966875,10.3625971 7.67266406,14.4209159 C7.648875,18.4368 10.9096172,21.7232928 14.9361797,21.7419594 M30.0000469,7.76816232 L30.0000469,22.608742 C29.8386797,23.4438725 29.2726641,23.8451478 28.4766094,24.0000464 L1.52348438,24.0000464 C0.772429688,23.8592928 0.19340625,23.5174957 4.6875e-05,22.7246841 L4.6875e-05,7.65222029 C0.372351563,7.11111884 0.841453125,6.75436522 1.53145313,6.64468406 C3.37551563,6.35181449 5.20996875,5.99958261 7.05203906,5.69291594 C8.09114063,5.51993043 8.85028125,5.01906087 9.27977344,4.04514783 C9.57532031,3.37477101 9.94528125,2.73430725 10.2083672,2.05268406 C10.615125,0.999002899 11.2325859,0.208510145 12.4219219,4.63768116e-05 L17.6953594,4.63768116e-05 C18.8880938,0.207582609 19.4977031,1.00735072 19.9080938,2.05778551 C20.1884063,2.77535072 20.5569609,3.45929275 20.8862578,4.15807536 C21.2781328,4.98961159 21.9448125,5.48851014 22.842,5.65616232 C24.6416484,5.9923942 26.4423516,6.32653913 28.2509063,6.61013333 C29.0421563,6.7341913 29.6515313,7.03436522 30.0000469,7.76816232" id="Fill-1" fill="#221F20" sketch:type="MSShapeGroup" mask="url(#mask-2)"></path>
                    </g>
                    <path d="M28.4765625,24 C29.2726172,23.8452174 29.83875,23.4438261 30,22.6086957 L30,24 L28.4765625,24 Z" id="Fill-4" fill="#FEFEFE" sketch:type="MSShapeGroup"></path>
                    <path d="M0,22.7246377 C0.193359375,23.5174493 0.772382812,23.8592464 1.5234375,24 L0,24 L0,22.7246377 Z" id="Fill-6" fill="#FEFEFE" sketch:type="MSShapeGroup"></path>
                    <path d="M14.9793047,8.65429565 C11.7833672,8.65452754 9.1535625,11.2833971 9.16457813,14.4669333 C9.17559375,17.6234551 11.7906328,20.2341217 14.9592656,20.2519768 C18.1355156,20.2699478 20.8018828,17.6287884 20.8089141,14.4577739 C20.8159453,11.2818899 18.1762969,8.65406377 14.9793047,8.65429565" id="Fill-8" fill="#FEFEFE" sketch:type="MSShapeGroup"></path>
                    <path d="M14.9793047,8.65429565 C18.1762969,8.65406377 20.8159453,11.2818899 20.8089141,14.4577739 C20.8018828,17.6287884 18.1355156,20.2699478 14.9592656,20.2519768 C11.7906328,20.2341217 9.17559375,17.6234551 9.16457813,14.4669333 C9.1535625,11.2833971 11.7833672,8.65452754 14.9793047,8.65429565" id="Fill-10" fill="#221F20" sketch:type="MSShapeGroup"></path>
                </g>
            </g>
        </g>
    </g>
</svg>