<?xml version="1.0" encoding="UTF-8" standalone="no"?>
<svg
   xmlns:sketch="http://www.bohemiancoding.com/sketch/ns"
   xmlns:dc="http://purl.org/dc/elements/1.1/"
   xmlns:cc="http://creativecommons.org/ns#"
   xmlns:rdf="http://www.w3.org/1999/02/22-rdf-syntax-ns#"
   xmlns:svg="http://www.w3.org/2000/svg"
   xmlns="http://www.w3.org/2000/svg"
   xmlns:sodipodi="http://sodipodi.sourceforge.net/DTD/sodipodi-0.dtd"
   xmlns:inkscape="http://www.inkscape.org/namespaces/inkscape"
   width="27px"
   height="33px"
   viewBox="0 0 27 33"
   version="1.1"
   id="svg3424"
   inkscape:version="0.91 r13725"
   sodipodi:docname="lista-paciente-activo.svg">
  <metadata
     id="metadata3439">
    <rdf:RDF>
      <cc:Work
         rdf:about="">
        <dc:format>image/svg+xml</dc:format>
        <dc:type
           rdf:resource="http://purl.org/dc/dcmitype/StillImage" />
        <dc:title>Fill 14</dc:title>
      </cc:Work>
    </rdf:RDF>
  </metadata>
  <sodipodi:namedview
     pagecolor="#ffffff"
     bordercolor="#666666"
     borderopacity="1"
     objecttolerance="10"
     gridtolerance="10"
     guidetolerance="10"
     inkscape:pageopacity="0"
     inkscape:pageshadow="2"
     inkscape:window-width="1366"
     inkscape:window-height="706"
     id="namedview3437"
     showgrid="false"
     inkscape:zoom="7.1515152"
     inkscape:cx="13.5"
     inkscape:cy="16.5"
     inkscape:window-x="-8"
     inkscape:window-y="-8"
     inkscape:window-maximized="1"
     inkscape:current-layer="svg3424" />
  <!-- Generator: Sketch 3.4.4 (17249) - http://www.bohemiancoding.com/sketch -->
  <title
     id="title3426">Fill 14</title>
  <desc
     id="desc3428">Created with Sketch.</desc>
  <defs
     id="defs3430" />
  <g
     id="Page-1"
     stroke="none"
     stroke-width="1"
     fill="none"
     fill-rule="evenodd"
     sketch:type="MSPage"
     style="fill:#ff6600">
    <g
       id="Desktop-Landscape-Copy"
       sketch:type="MSArtboardGroup"
       transform="translate(-1161.000000, -22.000000)"
       fill="#00B0B3"
       style="fill:#ff6600">
      <g
         id="Page-1-Copy-3"
         sketch:type="MSLayerGroup"
         transform="translate(1086.000000, 18.000000)"
         style="fill:#ff6600">
        <g
           id="Group-22"
           transform="translate(4.214133, 0.000000)"
           sketch:type="MSShapeGroup"
           style="fill:#ff6600">
          <path
             d="M78.1434111,22.3002171 C78.1389668,21.2108698 77.2530664,20.333853 76.1556905,20.3331144 C75.0512779,20.3323759 74.1346376,21.2441041 74.153526,22.3253275 C74.1724143,23.4157825 75.0623887,24.295015 76.1497648,24.2983385 C77.2512146,24.3016619 78.1478554,23.4028581 78.1434111,22.3002171 M92.3707792,4.22222222 C92.7755824,4.39725633 93.2033479,4.53462486 93.580374,4.75655629 C94.1436912,5.08816098 94.5007179,5.60957059 94.7418221,6.21480455 C94.7992278,6.35918922 94.891077,6.52019105 95.0144068,6.60364613 C96.3951078,7.53863843 96.9628692,8.85988742 96.9369441,10.4883693 C96.9150928,11.8476531 96.5421406,13.1245897 96.0499326,14.3712461 C95.1532917,16.6415196 93.8885133,18.6869076 92.1926362,20.452758 C91.4200659,21.2573979 90.5763865,21.9815369 89.5245649,22.4102596 C89.3267928,22.4911298 89.3056823,22.6133583 89.306423,22.7943007 C89.3112377,24.6927191 89.3142006,26.5911375 89.3075341,28.4891867 C89.3016083,30.2199564 88.894583,31.8366216 87.855724,33.2516652 C86.7394599,34.7726894 85.2220962,35.6500755 83.3677051,35.969125 C81.9666343,36.2098893 80.5888962,36.1175717 79.2541199,35.6293964 C77.1923274,34.8753465 75.8294036,33.4233759 75.0857213,31.3779879 C74.6490673,30.1782288 74.5864765,28.9278797 74.6153645,27.6701452 C74.6224014,27.378791 74.5364779,27.2465922 74.2546342,27.1391346 C72.0743266,26.3086458 70.7151064,24.0656982 70.9680621,21.7540664 C71.2195364,19.4568361 73.0294843,17.546601 75.2960857,17.1850854 C78.4796977,16.6780774 81.3462818,19.0942127 81.3729477,22.306864 C81.3896139,24.357791 80.0459489,26.354066 78.1137823,27.1136549 C77.8723078,27.2085574 77.8160131,27.3263546 77.8174945,27.5645339 C77.8245314,28.518359 77.8015691,29.470707 78.1311892,30.3909285 C78.638582,31.8078185 79.9840988,32.7889696 81.489611,32.8635622 C82.4651385,32.9123058 83.3962228,32.8081716 84.2480501,32.2934089 C85.2809834,31.6689729 85.809857,30.7158863 86.0009626,29.5604397 C86.0661459,29.1638434 86.0828121,28.7557998 86.0846639,28.3529259 C86.0931822,26.4858955 86.0846639,24.6184958 86.0935526,22.7514653 C86.0946636,22.5221485 86.0246657,22.4084133 85.8131903,22.3079718 C84.822478,21.8389985 83.9887983,21.151048 83.2499307,20.3560092 C81.3029498,18.261139 79.8241034,15.8811922 78.9644986,13.1460073 C78.5863613,11.9425556 78.3634048,10.7136241 78.6133976,9.44185735 C78.8293173,8.34549395 79.4285593,7.51278951 80.3181633,6.86065823 C80.4429745,6.76944848 80.5766744,6.63577264 80.6188954,6.49581922 C80.9807368,5.29495233 81.769603,4.56158159 82.9895679,4.27945911 C83.0384553,4.26801173 83.0843799,4.24179355 83.1314156,4.22222222 L84.067685,4.22222222 C84.2017552,4.26911955 84.334344,4.32007884 84.4698956,4.36180638 C86.0068884,4.83631867 86.9553796,6.49618849 86.5379842,7.98397836 C86.0628127,9.67745178 84.4750806,10.6368159 82.8254985,10.2095702 C82.4914341,10.123161 82.1751469,9.96880601 81.8281198,9.83697653 C81.8010836,9.97323726 81.741826,10.1069131 81.755159,10.2328343 C81.8177497,10.8266208 81.8292309,11.4381324 81.9888559,12.0071779 C82.5569877,14.0307789 83.5969578,15.8202626 84.9376599,17.4243726 C85.4654225,18.0554554 86.0935526,18.6152692 86.7331638,19.1381558 C87.5042527,19.7685002 87.9383143,19.7467132 88.7564389,19.1898537 C88.9279154,19.0735336 89.0938365,18.9476124 89.2519801,18.8139366 C90.4026878,17.8434943 91.2663666,16.6415196 92.0137525,15.353505 C92.7815082,14.0307789 93.4011199,12.6445383 93.6496313,11.1216678 C93.72037,10.688883 93.7566653,10.2483436 93.6292615,9.79155629 C93.547412,9.83032967 93.500006,9.84916245 93.4566739,9.87390356 C92.6370679,10.3395534 91.782648,10.4617818 90.8826739,10.1353469 C89.79752,9.74133553 89.124206,8.96549872 88.8934719,7.85510304 C88.6601453,6.73399853 89.0286532,5.77795783 89.8630737,4.99436634 C90.3093571,4.57524459 90.8686003,4.39393289 91.4345099,4.22222222 L92.3707792,4.22222222"
             id="Fill-14"
             style="fill:#ff6600" />
        </g>
      </g>
    </g>
  </g>
</svg>
