<?xml version="1.0" encoding="UTF-8" standalone="no"?>
<svg width="26px" height="38px" viewBox="0 0 26 38" version="1.1" xmlns="http://www.w3.org/2000/svg" xmlns:xlink="http://www.w3.org/1999/xlink" xmlns:sketch="http://www.bohemiancoding.com/sketch/ns">
    <!-- Generator: Sketch 3.4.4 (17249) - http://www.bohemiancoding.com/sketch -->
    <title>Group</title>
    <desc>Created with Sketch.</desc>
    <defs></defs>
    <g id="Page-1" stroke="none" stroke-width="1" fill="none" fill-rule="evenodd" sketch:type="MSPage">
        <g id="Desktop-Landscape-Copy" sketch:type="MSArtboardGroup" transform="translate(-1086.000000, -18.000000)" fill="#00B0B3">
            <g id="Page-1-Copy-3" sketch:type="MSLayerGroup" transform="translate(1086.000000, 18.000000)">
                <g id="Group" sketch:type="MSShapeGroup">
                    <path d="M0,37.6262846 L25.3911208,37.6262846 L25.3911208,4.92592593 L0,4.92592593 L0,37.6262846 Z M1.59254674,6.97685295 L23.7985741,6.97685295 L23.7985741,35.5753575 L1.59254674,35.5753575 L1.59254674,6.97685295 Z" id="Fill-2"></path>
                    <path d="M19.3223697,3.72411374 L17.485756,3.72411374 C16.1465353,3.72411374 15.4387779,3.14140527 15.4387779,2.49296669 C15.4387779,0.0908636467 13.2655071,-0.0188096207 12.6166369,0.00186951392 C11.968137,-0.0188096207 9.79486628,0.0908636467 9.79486628,2.49296669 C9.79486628,3.14140527 9.08710888,3.72411374 7.74788818,3.72411374 L5.9112744,3.72411374 C5.9112744,3.72411374 4.91648822,3.92351968 4.91648822,4.76287098 L12.4351606,4.76287098 L12.7984835,4.76287098 L20.3171559,4.76287098 C20.3171559,3.92351968 19.3223697,3.72411374 19.3223697,3.72411374" id="Fill-3"></path>
                    <path d="M21.8988088,11.3429652 L4.21413276,11.3429652 L4.21413276,9.85185185 L21.8988088,9.85185185 L21.8988088,11.3429652 Z" id="Fill-6"></path>
                    <path d="M14.7279041,14.8614837 L4.21413276,14.8614837 L4.21413276,13.3703704 L14.7279041,13.3703704 L14.7279041,14.8614837 Z" id="Fill-8"></path>
                    <path d="M17.4219006,18.3800022 L4.21413276,18.3800022 L4.21413276,16.8888889 L17.4219006,16.8888889 L17.4219006,18.3800022 Z" id="Fill-9"></path>
                    <path d="M20.0140482,21.8985207 L4.21413276,21.8985207 L4.21413276,20.4074074 L20.0140482,20.4074074 L20.0140482,21.8985207 Z" id="Fill-10"></path>
                    <path d="M21.4210448,28.2318541 L4.21413276,28.2318541 L4.21413276,26.7407407 L21.4210448,26.7407407 L21.4210448,28.2318541 Z" id="Fill-11"></path>
                    <path d="M12.5564483,31.9671342 C12.5564483,32.9102505 11.7894333,33.6750092 10.8435346,33.6750092 C9.89763594,33.6750092 9.13062099,32.9102505 9.13062099,31.9671342 C9.13062099,31.024018 9.89763594,30.2592593 10.8435346,30.2592593 C11.7894333,30.2592593 12.5564483,31.024018 12.5564483,31.9671342" id="Fill-13"></path>
                    <path d="M12.5009312,25.4170392 L4.21413276,25.4170392 L4.21413276,23.9259259 L12.5009312,23.9259259 L12.5009312,25.4170392 Z" id="Fill-1"></path>
                    <path d="M7.63996005,31.9671342 C7.63996005,32.9102505 6.8729451,33.6750092 5.92704641,33.6750092 C4.98114772,33.6750092 4.21413276,32.9102505 4.21413276,31.9671342 C4.21413276,31.024018 4.98114772,30.2592593 5.92704641,30.2592593 C6.8729451,30.2592593 7.63996005,31.024018 7.63996005,31.9671342" id="Fill-12"></path>
                </g>
            </g>
        </g>
    </g>
</svg>