<?xml version="1.0" encoding="utf-8"?>
<!-- Generator: Adobe Illustrator 15.1.0, SVG Export Plug-In  -->
<!DOCTYPE svg PUBLIC "-//W3C//DTD SVG 1.1//EN" "http://www.w3.org/Graphics/SVG/1.1/DTD/svg11.dtd" [
	<!ENTITY ns_flows "http://ns.adobe.com/Flows/1.0/">
]>
<svg version="1.1"
	 xmlns="http://www.w3.org/2000/svg" xmlns:xlink="http://www.w3.org/1999/xlink" xmlns:a="http://ns.adobe.com/AdobeSVGViewerExtensions/3.0/"
	 x="0px" y="0px" width="1200px" height="627px" viewBox="0 0 1200 627" enable-background="new 0 0 1200 627" xml:space="preserve"
	>
<defs>
</defs>
<polygon fill="#FFFFFF" points="435.635,176.524 435.635,199.524 449.635,199.524 449.635,326.523 439.135,326.523 439.135,349.023 
	489.635,349.023 489.635,326.023 475.635,326.023 475.635,176.524 "/>
<g>
	<defs>
		<rect id="SVGID_1_" width="1200" height="627"/>
	</defs>
	<use xlink:href="#SVGID_1_"  overflow="visible" fill="#FFFFFF"/>
	<clipPath id="SVGID_9_">
		<use xlink:href="#SVGID_1_"  overflow="visible"/>
	</clipPath>
	<path clip-path="url(#SVGID_9_)" fill="#FFFFFF" d="M480.635,234.524v22h12.5v72.5c0,0,1,20.25,20.25,20.25h77.25v-23.75h-12v-91
		h-39v24h13.5v67h-34.5v-91H480.635z"/>
	<path clip-path="url(#SVGID_9_)" fill="#FFFFFF" d="M599.635,201.024v33.5h-13v21.5h13v73.5c0,0,2.5,18.25,18.25,18.25h23.25
		v-21.75h-17v-68.5h31.5v90.25h101.5c0,0,17.63-4.5,17.63-17.619v-33.13c0,0-3.5-16.79-16.819-16.79h-40.311v-23.71h57.13v-22
		h-64.63c-14.25,0-17.75,7.5-17.75,17.75v29.75c0,13.17,2.5,18.13,18.13,18.13h40.13v26.38h-69.949v-92h-56.561v-33.5h-24.5V201.024
		z"/>
	<path clip-path="url(#SVGID_9_)" fill="#FFFFFF" d="M666.635,201.024c7.456,0,13.5,6.044,13.5,13.5s-6.044,13.5-13.5,13.5
		s-13.5-6.044-13.5-13.5S659.179,201.024,666.635,201.024"/>
	<path clip-path="url(#SVGID_9_)" fill="#FFFFFF" d="M408.635,234.524h-128.5c0,0-20,3.5-20,20v33.5c0,0,2.5,14.21,14.25,14.21
		h42.25v24.25h-59v22.5h68.5c0,0,16-4.5,16-18v-34c0,0-3-15.25-15.25-15.25h-42.25v-24.21h121.5v26h-39.5
		c-9.33,0-18.75,10.67-18.75,18.5v28c0,0,3.19,18.939,16.31,18.939h64.44v-94.44C428.635,254.524,427.635,234.524,408.635,234.524
		 M406.135,328.524h-37v-24.5h37V328.524z"/>
	<rect x="724.905" y="213.734" clip-path="url(#SVGID_9_)" fill="#FFFFFF" width="14.26" height="15.42"/>
	<g opacity="0.41" clip-path="url(#SVGID_9_)">
		<g>
			<defs>
				<rect id="SVGID_8_" x="739.865" y="156.354" width="15.08" height="15.08"/>
			</defs>
			<use xlink:href="#SVGID_8_"  overflow="visible" fill="#FFFFFF"/>
			<clipPath id="SVGID_10_">
				<use xlink:href="#SVGID_8_"  overflow="visible"/>
			</clipPath>
			<rect x="739.865" y="156.354" clip-path="url(#SVGID_10_)" fill="#FFFFFF" width="15.08" height="15.08"/>
		</g>
	</g>
	<rect x="820.205" y="225.984" clip-path="url(#SVGID_9_)" fill="#FFFFFF" width="17.91" height="17.91"/>
	<polygon clip-path="url(#SVGID_9_)" fill="#FFFFFF" points="778.885,146.534 778.885,160.444 765.215,160.444 765.215,146.524 	"/>
	<g opacity="0.45" clip-path="url(#SVGID_9_)">
		<g>
			<defs>
				<rect id="SVGID_7_" x="821.575" y="144.194" width="15.25" height="16.25"/>
			</defs>
			<use xlink:href="#SVGID_7_"  overflow="visible" fill="#FFFFFF"/>
			<clipPath id="SVGID_11_">
				<use xlink:href="#SVGID_7_"  overflow="visible"/>
			</clipPath>
			<rect x="821.575" y="144.194" clip-path="url(#SVGID_11_)" fill="#FFFFFF" width="15.25" height="16.25"/>
		</g>
	</g>
	<polygon clip-path="url(#SVGID_9_)" fill="#FFFFFF" points="778.885,171.444 778.885,185.044 754.395,185.044 754.395,185.024 
		765.215,185.024 765.215,171.444 	"/>
	<polygon clip-path="url(#SVGID_9_)" fill="#FFFFFF" points="821.615,174.354 808.385,174.354 808.385,160.444 821.575,160.444 	"/>
	<rect x="808.385" y="214.544" clip-path="url(#SVGID_9_)" fill="#FFFFFF" width="11.82" height="11.44"/>
	<rect x="754.285" y="214.544" clip-path="url(#SVGID_9_)" fill="#FFFFFF" width="24.6" height="12.65"/>
	<g opacity="0.46" clip-path="url(#SVGID_9_)">
		<g>
			<defs>
				<rect id="SVGID_6_" x="740.415" y="199.354" width="13.87" height="14.38"/>
			</defs>
			<use xlink:href="#SVGID_6_"  overflow="visible" fill="#FFFFFF"/>
			<clipPath id="SVGID_12_">
				<use xlink:href="#SVGID_6_"  overflow="visible"/>
			</clipPath>
			<rect x="740.415" y="199.354" clip-path="url(#SVGID_12_)" fill="#FFFFFF" width="13.87" height="14.38"/>
		</g>
	</g>
	<g opacity="0.51" clip-path="url(#SVGID_9_)">
		<g>
			<defs>
				<rect id="SVGID_5_" x="778.885" y="240.274" width="14.75" height="16.42"/>
			</defs>
			<use xlink:href="#SVGID_5_"  overflow="visible" fill="#FFFFFF"/>
			<clipPath id="SVGID_13_">
				<use xlink:href="#SVGID_5_"  overflow="visible"/>
			</clipPath>
			<rect x="778.885" y="240.274" clip-path="url(#SVGID_13_)" fill="#FFFFFF" width="14.75" height="16.42"/>
		</g>
	</g>
	<g opacity="0.36" clip-path="url(#SVGID_9_)">
		<g>
			<defs>
				<rect id="SVGID_4_" x="754.285" y="160.444" width="79.85" height="79.83"/>
			</defs>
			<use xlink:href="#SVGID_4_"  overflow="visible" fill="#FFFFFF"/>
			<clipPath id="SVGID_14_">
				<use xlink:href="#SVGID_4_"  overflow="visible"/>
			</clipPath>
			<polygon clip-path="url(#SVGID_14_)" fill="#FFFFFF" points="834.115,174.354 834.115,197.274 834.135,197.274 834.135,214.524 
				820.205,214.524 820.205,214.544 808.385,214.544 808.385,240.274 778.885,240.274 778.885,214.544 754.285,214.544 
				754.285,199.354 754.395,199.354 754.395,185.044 778.885,185.044 778.885,160.444 808.385,160.444 808.385,185.024 
				821.615,185.024 821.615,174.354 			"/>
		</g>
	</g>
	<g opacity="0.64" clip-path="url(#SVGID_9_)">
		<g>
			<defs>
				<rect id="SVGID_3_" x="834.115" y="174.354" width="12.25" height="10.69"/>
			</defs>
			<use xlink:href="#SVGID_3_"  overflow="visible" fill="#FFFFFF"/>
			<clipPath id="SVGID_15_">
				<use xlink:href="#SVGID_3_"  overflow="visible"/>
			</clipPath>
			<rect x="834.115" y="174.354" clip-path="url(#SVGID_15_)" fill="#FFFFFF" width="12.25" height="10.69"/>
		</g>
	</g>
	<g opacity="0.64" clip-path="url(#SVGID_9_)">
		<g>
			<defs>
				<rect id="SVGID_2_" x="754.285" y="214.734" width="12.25" height="12.46"/>
			</defs>
			<use xlink:href="#SVGID_2_"  overflow="visible" fill="#FFFFFF"/>
			<clipPath id="SVGID_16_">
				<use xlink:href="#SVGID_2_"  overflow="visible"/>
			</clipPath>
			<rect x="754.285" y="214.734" clip-path="url(#SVGID_16_)" fill="#FFFFFF" width="12.25" height="12.46"/>
		</g>
	</g>
	<path clip-path="url(#SVGID_9_)" fill="#FFFFFF" d="M470.645,390.344h-3.57l-0.82-14.58c-0.387-6.859-0.563-11.56-0.53-14.1h-0.14
		c-1.16,3.859-2.513,7.95-4.06,12.27l-5.94,16.3h-2.73l-5.48-16c-1.469-4.133-2.728-8.339-3.77-12.6h-0.15
		c-0.093,4.607-0.303,9.42-0.63,14.44l-0.87,14.25h-3.48l2.23-32.551h4.6l5.79,16.46c1.333,3.768,2.44,7.407,3.32,10.921h0.1
		c0.972-3.681,2.13-7.309,3.47-10.87l6-16.511h4.6L470.645,390.344z"/>
	<path clip-path="url(#SVGID_9_)" fill="#FFFFFF" d="M495.475,377.233c0.01,0.631-0.04,1.261-0.15,1.881h-16.18
		c0,2.979,0.82,5.229,2.46,6.75c1.521,1.395,3.54,2.115,5.6,2c2.16,0.036,4.302-0.394,6.28-1.261l0.68,2.66
		c-2.358,1.033-4.917,1.529-7.49,1.45c-3.04,0.15-5.996-1.021-8.11-3.21c-2.071-2.341-3.148-5.398-3-8.521
		c-0.128-3.252,0.907-6.442,2.92-9c1.872-2.317,4.722-3.624,7.7-3.529c2.999-0.167,5.85,1.312,7.44,3.859
		C494.896,372.394,495.539,374.797,495.475,377.233 M491.805,376.414c0.085-1.656-0.318-3.301-1.16-4.73
		c-1.037-1.659-2.896-2.621-4.85-2.51c-1.926-0.041-3.745,0.882-4.85,2.46c-1.04,1.39-1.661,3.049-1.79,4.78H491.805z"/>
	<path clip-path="url(#SVGID_9_)" fill="#FFFFFF" d="M520.345,390.344h-3.29l-0.2-4.11h-0.1c-1.48,3.061-4.087,4.591-7.82,4.591
		c-2.719,0.037-5.304-1.185-7-3.311c-1.936-2.406-2.931-5.434-2.8-8.52c-0.153-3.347,0.937-6.63,3.06-9.221
		c1.813-2.129,4.484-3.333,7.28-3.279c3.367,0,5.7,1.207,7,3.62v-14.011h3.67v28.44
		C520.145,386.571,520.212,388.504,520.345,390.344 M516.485,380.714v-4.31c0.007-0.634-0.043-1.267-0.15-1.891
		c-0.329-1.408-1.092-2.678-2.18-3.63c-2.773-2.298-6.883-1.913-9.18,0.86c-0.076,0.091-0.149,0.185-0.22,0.279
		c-1.359,1.981-2.039,4.351-1.94,6.75c-0.101,2.268,0.526,4.507,1.79,6.391c1.179,1.749,3.172,2.771,5.28,2.71
		c1.825,0.05,3.573-0.734,4.75-2.13c1.216-1.392,1.871-3.184,1.84-5.03H516.485z"/>
	<path clip-path="url(#SVGID_9_)" fill="#FFFFFF" d="M531.545,360.064c0.041,0.766-0.282,1.507-0.87,2
		c-0.474,0.35-1.05,0.535-1.64,0.529c-1.314,0.019-2.395-1.031-2.413-2.346c-0.001-0.055,0-0.11,0.003-0.164
		c-0.018-0.667,0.235-1.312,0.7-1.79c0.987-0.964,2.563-0.964,3.55,0C531.32,358.774,531.56,359.409,531.545,360.064
		 M530.915,390.344h-3.67v-23.33h3.67V390.344z"/>
	<path clip-path="url(#SVGID_9_)" fill="#FFFFFF" d="M554.295,367.784l-0.92,2.899c-1.519-0.798-3.215-1.197-4.93-1.16
		c-2.35-0.127-4.626,0.845-6.16,2.631c-1.502,1.86-2.283,4.199-2.2,6.59c-0.117,2.41,0.704,4.771,2.29,6.59
		c1.515,1.655,3.678,2.564,5.92,2.49c1.787-0.011,3.55-0.406,5.17-1.16l0.72,2.8c-2.057,0.948-4.305,1.41-6.57,1.35
		c-3.069,0.128-6.048-1.058-8.19-3.26c-2.14-2.347-3.262-5.447-3.12-8.62c-0.124-3.307,1.087-6.524,3.36-8.93
		C543.642,366.369,549.419,365.492,554.295,367.784"/>
	<path clip-path="url(#SVGID_9_)" fill="#FFFFFF" d="M575.155,390.344h-3.3l-0.34-3h-0.14c-1.557,2.344-4.24,3.688-7.05,3.53
		c-1.942,0.09-3.827-0.665-5.17-2.07c-1.16-1.218-1.786-2.849-1.74-4.53c-0.088-2.633,1.275-5.102,3.55-6.43
		c2.367-1.493,5.77-2.223,10.21-2.189v-0.53c0-3.854-1.787-5.764-5.36-5.73c-2.082-0.048-4.132,0.523-5.89,1.641l-0.87-2.511
		c2.18-1.369,4.716-2.064,7.29-2c5.667,0,8.5,3.107,8.5,9.32v8.93C574.809,386.636,574.913,388.498,575.155,390.344
		 M571.155,382.594v-4.36c-6.728-0.127-10.09,1.7-10.09,5.48c-0.087,1.183,0.335,2.348,1.16,3.2c0.787,0.727,1.829,1.115,2.9,1.08
		c1.39,0.027,2.75-0.412,3.86-1.25c0.934-0.724,1.63-1.709,2-2.83c0.118-0.431,0.171-0.875,0.16-1.32H571.155z"/>
	<rect x="581.725" y="356.104" clip-path="url(#SVGID_9_)" fill="#FFFFFF" width="3.67" height="34.24"/>
	<path clip-path="url(#SVGID_9_)" fill="#FFFFFF" d="M621.615,381.604c0.082,2.446-0.903,4.809-2.7,6.471
		c-2,1.833-4.753,2.75-8.26,2.75c-2.817,0.145-5.61-0.581-8-2.08l1-3c2.166,1.342,4.672,2.036,7.22,2
		c1.855,0.11,3.689-0.454,5.16-1.59c1.243-1.056,1.932-2.621,1.87-4.25c0.058-1.469-0.455-2.901-1.431-4
		c-1.336-1.281-2.951-2.233-4.72-2.78c-5.587-2.127-8.38-5.188-8.38-9.18c-0.057-2.389,0.973-4.673,2.8-6.21
		c2.044-1.688,4.643-2.559,7.29-2.44c2.383-0.108,4.752,0.423,6.86,1.54l-1.11,3c-1.783-1.043-3.825-1.563-5.89-1.5
		c-1.787-0.11-3.544,0.498-4.88,1.689c-0.921,0.901-1.428,2.143-1.4,3.431c-0.046,1.435,0.517,2.823,1.55,3.819
		c1.465,1.179,3.114,2.107,4.88,2.75c2.288,0.8,4.367,2.105,6.08,3.82C620.939,377.437,621.676,379.493,621.615,381.604"/>
	<path clip-path="url(#SVGID_9_)" fill="#FFFFFF" d="M647.735,378.464c0.124,3.177-0.927,6.288-2.95,8.74
		c-2.052,2.444-5.121,3.8-8.311,3.67c-3.078,0.123-6.037-1.197-8-3.57c-1.953-2.372-2.967-5.379-2.85-8.45
		c-0.118-3.16,0.932-6.254,2.95-8.689c2.054-2.42,5.107-3.759,8.279-3.63c3.06-0.126,6.008,1.157,8,3.479
		C646.818,372.382,647.843,375.39,647.735,378.464 M643.915,378.634c0.063-2.214-0.543-4.396-1.74-6.26
		c-1.159-1.908-3.248-3.052-5.479-3c-2.276-0.082-4.422,1.063-5.62,3c-1.208,1.896-1.814,4.113-1.74,6.36
		c-0.05,2.203,0.575,4.37,1.79,6.21c1.166,1.9,3.251,3.042,5.479,3c2.256,0.021,4.354-1.15,5.521-3.08
		c1.205-1.853,1.832-4.021,1.8-6.23H643.915z"/>
	<path clip-path="url(#SVGID_9_)" fill="#FFFFFF" d="M665.125,356.294l-0.58,2.85c-0.87-0.365-1.806-0.547-2.75-0.529
		c-3.093,0-4.64,2.383-4.64,7.149v1.26h5.7v2.851h-5.7v20.479h-3.67v-20.489h-3.24v-2.851h3.24v-1.16
		c0-3.699,0.887-6.42,2.659-8.159c1.45-1.43,3.427-2.196,5.461-2.12C662.818,355.538,664.023,355.784,665.125,356.294"/>
	<path clip-path="url(#SVGID_9_)" fill="#FFFFFF" d="M677.855,369.864h-6.08v13.37c0,3.06,1.053,4.59,3.159,4.59
		c0.826,0.018,1.65-0.098,2.44-0.34l0.189,2.85c-1.135,0.387-2.33,0.566-3.529,0.53c-1.653,0.1-3.265-0.546-4.391-1.761
		c-1.032-1.173-1.55-3.13-1.55-5.869v-13.37h-3.67v-2.851h3.67v-4.25l3.67-1.21v5.46h6.091V369.864z"/>
	<path clip-path="url(#SVGID_9_)" fill="#FFFFFF" d="M713.265,367.014l-7.489,23.33h-3.37l-3.7-11.63
		c-0.927-2.993-1.617-5.553-2.07-7.68h-0.1c-0.585,2.612-1.307,5.192-2.16,7.729l-3.91,11.59h-3.399l-7-23.33h3.779l3.351,12.211
		c0.739,2.8,1.337,5.279,1.79,7.439h0.1c0.42-1.9,1.127-4.363,2.12-7.39l4-12.221h3.14l3.771,12c0.833,2.667,1.52,5.193,2.06,7.58
		h0.101c0.387-2,1.01-4.513,1.869-7.54l3.521-12.069h3.65L713.265,367.014z"/>
	<path clip-path="url(#SVGID_9_)" fill="#FFFFFF" d="M733.405,390.344h-3.33l-0.34-3h-0.141c-1.557,2.344-4.239,3.688-7.05,3.53
		c-1.941,0.09-3.827-0.665-5.17-2.07c-1.16-1.218-1.786-2.849-1.74-4.53c-0.088-2.633,1.275-5.102,3.55-6.43
		c2.367-1.493,5.771-2.223,10.21-2.189v-0.53c0-3.854-1.786-5.764-5.359-5.73c-2.082-0.048-4.132,0.523-5.891,1.641l-0.869-2.511
		c2.18-1.369,4.716-2.064,7.29-2c5.667,0,8.5,3.107,8.5,9.32v8.93C733.039,386.637,733.153,388.498,733.405,390.344
		 M729.405,382.594v-4.36c-6.728-0.127-10.09,1.7-10.09,5.48c-0.087,1.183,0.335,2.348,1.159,3.2c0.787,0.727,1.829,1.115,2.9,1.08
		c1.39,0.027,2.75-0.412,3.86-1.25c0.934-0.724,1.63-1.709,2-2.83c0.118-0.431,0.171-0.875,0.159-1.32H729.405z"/>
	<path clip-path="url(#SVGID_9_)" fill="#FFFFFF" d="M750.855,370.004h-1.341c-1.857-0.034-3.587,0.947-4.51,2.56
		c-0.933,1.56-1.397,3.354-1.34,5.17v12.601h-3.67v-16.22c0-2.381-0.05-4.747-0.15-7.101h3.19l0.14,4.59h0.14
		c0.483-1.448,1.372-2.729,2.561-3.689c1.088-0.895,2.452-1.382,3.86-1.38c0.372-0.005,0.743,0.024,1.109,0.09v3.38H750.855z"/>
	<path clip-path="url(#SVGID_9_)" fill="#FFFFFF" d="M772.955,377.233c0.01,0.631-0.04,1.261-0.15,1.881h-16.17
		c0,2.979,0.82,5.229,2.46,6.75c1.521,1.395,3.54,2.115,5.601,2c2.159,0.036,4.302-0.394,6.279-1.261l0.681,2.66
		c-2.358,1.033-4.917,1.529-7.49,1.45c-3.04,0.15-5.996-1.021-8.11-3.21c-2.07-2.341-3.147-5.398-3-8.521
		c-0.128-3.252,0.907-6.442,2.92-9c1.872-2.317,4.723-3.624,7.7-3.529c2.999-0.167,5.851,1.312,7.44,3.859
		C772.383,372.395,773.021,374.798,772.955,377.233 M769.285,376.414c0.085-1.656-0.318-3.301-1.16-4.73
		c-1.037-1.659-2.896-2.621-4.85-2.51c-1.927-0.041-3.745,0.882-4.851,2.46c-1.04,1.39-1.661,3.049-1.79,4.78H769.285z"/>
	<rect x="778.885" y="160.444" clip-path="url(#SVGID_9_)" fill="#FFFFFF" width="29.5" height="79.83"/>
	<rect x="754.285" y="185.044" clip-path="url(#SVGID_9_)" fill="#FFFFFF" width="79.83" height="29.5"/>
</g>
<text transform="matrix(1 0 0 1 794.21 347.7734)"><tspan x="0" y="0" fill="#FFFFFF" font-family="'MyriadPro-Regular'" font-size="137.2997">li</tspan><tspan x="64.529" y="0" fill="#FFFFFF" font-family="'MyriadPro-Regular'" font-size="137.2997">t</tspan><tspan x="109.288" y="0" fill="#FFFFFF" font-family="'MyriadPro-Regular'" font-size="137.2997">e</tspan></text>
<rect fill="#FFFFFF" width="1200" height="627"/>
</svg>
