<?xml version="1.0" encoding="UTF-8" standalone="no"?>
<svg width="32px" height="32px" viewBox="0 0 32 32" version="1.1" xmlns="http://www.w3.org/2000/svg" xmlns:xlink="http://www.w3.org/1999/xlink" xmlns:sketch="http://www.bohemiancoding.com/sketch/ns">
    <!-- Generator: Sketch 3.4.4 (17249) - http://www.bohemiancoding.com/sketch -->
    <title>Page 1</title>
    <desc>Created with Sketch.</desc>
    <defs>
        <path id="path-1" d="M0,0.0772631579 L31.9777483,0.0772631579 L31.9777483,32 L0,32 L0,0.0772631579 Z"></path>
        <path id="path-3" d="M0,0.0772631579 L31.9777483,0.0772631579 L31.9777483,32 L0,32"></path>
    </defs>
    <g id="Page-1" stroke="none" stroke-width="1" fill="none" fill-rule="evenodd" sketch:type="MSPage">
        <g id="Desktop-Landscape-Copy" sketch:type="MSArtboardGroup" transform="translate(-282.000000, -105.000000)">
            <g id="Page-1" sketch:type="MSLayerGroup" transform="translate(282.000000, 105.000000)">
                <g id="Group-3">
                    <mask id="mask-2" sketch:name="Clip 2" fill="white">
                        <use xlink:href="#path-1"></use>
                    </mask>
                    <g id="Clip-2"></g>
                    <path d="M13.5357245,0.0773473684 C14.0733669,0.197768421 14.6252079,0.275663158 15.1465325,0.445768421 C17.4617642,1.20218947 18.8468768,2.84976842 19.347645,5.15650526 C20.1306914,8.76197895 19.2480424,12.0491368 17.1428238,15.0428211 C17.0593272,15.1617684 16.9629033,15.2735579 16.8613934,15.3777684 C16.1781616,16.0792421 16.1493404,16.9236632 16.2995921,17.8162947 C16.3203603,17.9392421 16.2896318,18.1042947 16.2177907,18.2036632 C15.3569695,19.3956632 14.7710093,20.7042947 14.5213669,22.1508211 C14.0829033,24.6912421 14.5783735,27.0440842 16.0173139,29.1912421 C16.2938702,29.6038737 16.6174728,29.9849263 16.9499762,30.4209263 C16.4540821,30.4508211 15.9899762,30.4885053 15.5252344,30.5053474 C12.7090225,30.6080842 9.89535364,30.5739789 7.09291656,30.2573474 C5.59612185,30.0882947 4.11543311,29.8181895 2.70594967,29.2596632 C2.00258543,28.9809263 1.34287682,28.6295579 0.79845298,28.0897684 C0.335194702,27.6304 0.0685986755,27.0910316 0.0245192053,26.4360842 C-0.048805298,25.3434526 -0.00218278146,24.2746105 0.794850331,23.4162947 C1.28226755,22.8914526 1.79151258,22.3725053 2.3573404,21.9360842 C4.10716821,20.5864 6.08714172,19.6381895 8.15442649,18.8870316 C9.42679735,18.4249263 9.88518146,17.2948211 9.40412185,16.0169263 C9.36512848,15.9135579 9.29900927,15.8144 9.22589669,15.7301895 C6.95749934,13.1154526 6.03712848,10.0478737 6.21323444,6.64618947 C6.29757881,5.01861053 6.79834702,3.50471579 7.89673113,2.23987368 C8.96544636,1.00913684 10.3389033,0.355242105 11.945049,0.147242105 C12.0577907,0.132715789 12.1682013,0.101136842 12.2796715,0.0773473684 L13.5357245,0.0773473684 Z" id="Fill-1" fill="#4990E2" sketch:type="MSShapeGroup" mask="url(#mask-2)"></path>
                </g>
                <g id="Group-6">
                    <mask id="mask-4" sketch:name="Clip 5" fill="white">
                        <use xlink:href="#path-3"></use>
                    </mask>
                    <g id="Clip-5"></g>
                    <path d="M24.2112212,29.8794737 C23.974506,30.0636842 23.6381881,30.1217895 23.347645,30.2377895 L23.0935523,30.2377895 C22.3276715,29.938 22.1144795,29.6306316 22.2681219,28.7942105 C22.4531285,27.7883158 22.6993801,26.7923158 22.9481748,25.7992632 C23.1202543,25.1133684 23.3417113,24.4398947 23.5411285,23.7607368 C23.5226914,23.7466316 23.5044662,23.7325263 23.4860291,23.7184211 C22.942453,24.2022105 22.3986649,24.686 21.8658967,25.1601053 C21.5639099,24.9508421 21.2805722,24.7546316 20.9972344,24.5582105 L20.9972344,24.4321053 C21.4742675,23.9904211 21.9424,23.5384211 22.4308768,23.1097895 C23.0537113,22.5634737 23.7197775,22.0845263 24.5664,21.9337895 C25.3984,21.7855789 25.8639894,22.2655789 25.6692344,23.0752632 C25.625155,23.2586316 25.5749298,23.4405263 25.5247046,23.6224211 C25.1277775,25.0569474 24.728943,26.4908421 24.334347,27.9262105 C24.2904795,28.0857895 24.2699232,28.2516842 24.2192742,28.5144211 C24.8713536,27.9310526 25.4551947,27.4087368 26.0706119,26.8582105 C26.3179232,27.1306316 26.5567576,27.3933684 26.8523868,27.7188421 C25.9869033,28.4323158 25.1150623,29.1763158 24.2112212,29.8794737 M24.7704795,17.7622105 C25.4424795,17.7664211 25.9455788,18.2883158 25.9457907,18.9813684 C25.9462146,19.8478947 25.2595921,20.5834737 24.4521748,20.5813684 C23.7587709,20.5794737 23.2817377,20.0689474 23.2853404,19.3323158 C23.2895788,18.4689474 23.9630623,17.7571579 24.7704795,17.7622105 M23.9247046,16.0001053 C19.4771285,16.0001053 15.8717245,19.5817895 15.8717245,24.0001053 C15.8717245,28.4182105 19.4771285,32.0001053 23.9247046,32.0001053 C28.3722808,32.0001053 31.9776848,28.4182105 31.9776848,24.0001053 C31.9776848,19.5817895 28.3722808,16.0001053 23.9247046,16.0001053" id="Fill-4" fill="#4990E2" sketch:type="MSShapeGroup" mask="url(#mask-4)"></path>
                </g>
            </g>
        </g>
    </g>
</svg>