<?xml version="1.0" encoding="UTF-8" standalone="no"?>
<svg width="25px" height="25px" viewBox="0 0 25 25" version="1.1" xmlns="http://www.w3.org/2000/svg" xmlns:xlink="http://www.w3.org/1999/xlink" xmlns:sketch="http://www.bohemiancoding.com/sketch/ns">
    <!-- Generator: Sketch 3.4.4 (17249) - http://www.bohemiancoding.com/sketch -->
    <title>Page 1</title>
    <desc>Created with Sketch.</desc>
    <defs>
        <path id="path-1" d="M0,0 L25,0 L25,25 L0,25 L0,0 Z"></path>
        <path id="path-3" d="M0,0 L25,0 L25,25 L0,25 L0,0 Z"></path>
    </defs>
    <g id="Page-1" stroke="none" stroke-width="1" fill="none" fill-rule="evenodd" sketch:type="MSPage">
        <g id="Consulta-1-Copy" sketch:type="MSArtboardGroup" transform="translate(-924.000000, -103.000000)">
            <g id="Submenu-de-consultas" sketch:type="MSLayerGroup" transform="translate(292.000000, 97.000000)">
                <g id="Page-1" transform="translate(632.000000, 6.000000)">
                    <g id="Group-3">
                        <mask id="mask-2" sketch:name="Clip 2" fill="white">
                            <use xlink:href="#path-1"></use>
                        </mask>
                        <g id="Clip-2"></g>
                        <path d="M23.4397217,6.2411377 L23.4397217,6.05446777 C23.4398193,4.85012207 23.4408936,3.6458252 23.4395264,2.44152832 C23.4388428,1.88156738 23.1218994,1.56081543 22.563208,1.56071777 C15.8744385,1.55969238 9.18571777,1.55969238 2.49699707,1.56066895 C1.84924316,1.5607666 1.56174316,1.85163574 1.56062012,2.50358887 C1.55861816,3.66721191 1.55983887,4.83083496 1.56066895,5.99445801 C1.56071777,6.0732666 1.56887207,6.15212402 1.57385254,6.2411377 L23.4397217,6.2411377 Z M1.56027832,7.82165527 L1.56027832,8.00803223 C1.56022949,12.8498779 1.55983887,17.6917236 1.5604248,22.5335693 C1.56047363,23.1268311 1.87185059,23.4396729 2.46081543,23.4396729 C9.16604004,23.4397217 15.8712646,23.4392334 22.5764893,23.4384033 C23.1167236,23.4383545 23.4383545,23.1136963 23.4384033,22.5697998 C23.4391846,17.752417 23.4394775,12.935083 23.439917,8.1177002 C23.4399658,8.02277832 23.4399658,7.92780762 23.4399658,7.82165527 L1.56027832,7.82165527 Z M23.7304932,25.0000244 L1.26955566,25.0000244 C1.02819824,24.875415 0.77175293,24.7729736 0.549243164,24.6208252 C0.242358398,24.4109619 0.124487305,24.0639893 2.44140629e-05,23.7304932 L2.44140629e-05,1.26955566 C0.169506836,0.981518555 0.296264648,0.652319336 0.52175293,0.418188477 C0.711352539,0.221313477 1.01589355,0.135180664 1.26955566,2.44140625e-05 L23.7304932,2.44140625e-05 C24.0640869,0.124389648 24.4108643,0.242456055 24.6208252,0.549291992 C24.7730225,0.771704102 24.875415,1.02819824 25.0000244,1.26955566 L25.0000244,23.7304932 C24.9140869,23.9199463 24.8446045,24.1192139 24.7388428,24.2968506 C24.5112061,24.6793701 24.1363525,24.8653076 23.7304932,25.0000244 L23.7304932,25.0000244 Z" id="Fill-1" fill="#9C36B1" sketch:type="MSShapeGroup" mask="url(#mask-2)"></path>
                    </g>
                    <mask id="mask-4" sketch:name="Clip 5" fill="white">
                        <use xlink:href="#path-3"></use>
                    </mask>
                    <g id="Clip-5"></g>
                    <path d="M14.0815918,17.9587891 L18.7402344,17.9587891 L18.7402344,13.2911133 L14.0815918,13.2911133 L14.0815918,17.9587891 Z M16.4068359,11.7200195 C17.4317871,11.7200195 18.4566895,11.7197266 19.4816406,11.720166 C19.9846191,11.7203613 20.3087402,12.0371094 20.3092773,12.5382812 C20.3114746,14.5962891 20.3118652,16.6543457 20.3107422,18.7123535 C20.310498,19.1990723 19.9862793,19.5288574 19.5042969,19.529248 C17.4381836,19.5309082 15.3720215,19.5304199 13.3058594,19.5277832 C12.8211426,19.5271973 12.5016113,19.1991211 12.5015137,18.7111328 C12.5011719,16.6612793 12.5015137,14.611377 12.5028809,12.5615234 C12.5032715,12.028125 12.8151367,11.7220703 13.3563965,11.7215332 C14.3732422,11.7205566 15.3900391,11.7212402 16.4068359,11.7212402 L16.4068359,11.7200195 Z" id="Fill-4" fill="#9C36B1" sketch:type="MSShapeGroup" mask="url(#mask-4)"></path>
                    <path d="M7.7998877,13.2787012 C7.03567871,13.2787012 6.27146973,13.280166 5.50726074,13.2781641 C5.02806152,13.2769434 4.6898291,12.9522852 4.69021973,12.5001855 C4.69061035,12.0487207 5.0292334,11.7225 5.50760254,11.7219141 C7.0441748,11.7201562 8.58069824,11.7200586 10.1172217,11.7219629 C10.59354,11.7225488 10.9367041,12.052627 10.936167,12.4998926 C10.9356299,12.9467187 10.5901709,13.2783105 10.1168799,13.2796289 C9.34456543,13.2817773 8.57220215,13.2802148 7.7998877,13.2802148 L7.7998877,13.2787012 Z" id="Fill-6" fill="#9C36B1" sketch:type="MSShapeGroup" mask="url(#mask-4)"></path>
                    <path d="M7.78949707,16.4037207 C7.03334473,16.4037695 6.27724121,16.4050391 5.52108887,16.4032813 C5.03837402,16.4021582 4.69394043,16.0831152 4.69022949,15.6389258 C4.6864209,15.1726172 5.02020996,14.8478613 5.51762207,14.8470801 C7.05424316,14.8446387 8.59091309,14.8449805 10.127583,14.8470313 C10.5904248,14.847666 10.9309521,15.1741797 10.9347119,15.6103613 C10.938667,16.0654883 10.6048779,16.4000098 10.1310498,16.4025488 C9.35053223,16.406748 8.57001465,16.4036719 7.78949707,16.4037207" id="Fill-7" fill="#9C36B1" sketch:type="MSShapeGroup" mask="url(#mask-4)"></path>
                    <path d="M7.81385254,19.52875 C7.04959473,19.52875 6.28528809,19.5302148 5.52103027,19.5282617 C5.02811035,19.5269922 4.6835791,19.1980371 4.68880371,18.7394434 C4.69388184,18.2933496 5.03924316,17.9704004 5.51751465,17.9702051 C7.0460791,17.9696191 8.57464355,17.9701562 10.1031592,17.9716699 C10.5971533,17.9721582 10.9390479,18.2982812 10.934751,18.759707 C10.9306494,19.2060449 10.5872412,19.5270898 10.1066748,19.5282617 C9.34241699,19.5300684 8.57811035,19.52875 7.81385254,19.52875" id="Fill-8" fill="#9C36B1" sketch:type="MSShapeGroup" mask="url(#mask-4)"></path>
                    <path d="M9.34955566,4.6862793 C8.57714355,4.6862793 7.80473145,4.68945313 7.03236816,4.68505859 C6.59071777,4.68256836 6.25702637,4.34780273 6.25272949,3.91713867 C6.2482373,3.47026367 6.57758301,3.12998047 7.03393066,3.12895508 C8.59496582,3.12539063 10.1560498,3.12514648 11.717085,3.12895508 C12.1233838,3.12993164 12.4461377,3.41738281 12.4935986,3.79765625 C12.5424756,4.18955078 12.3097119,4.55058594 11.9312939,4.65683594 C11.8471143,4.68046875 11.7551709,4.68369141 11.6667432,4.68393555 C10.8943799,4.68588867 10.1219678,4.68505859 9.34955566,4.68505859 L9.34955566,4.6862793 Z" id="Fill-9" fill="#9C36B1" sketch:type="MSShapeGroup" mask="url(#mask-4)"></path>
                    <path d="M3.90699219,4.68494141 C3.46299805,4.68254883 3.12579102,4.34050781 3.1275,3.89426758 C3.12916016,3.46697266 3.4755957,3.12537109 3.90503906,3.12751953 C4.34927734,3.12981445 4.68672852,3.47175781 4.6849707,3.91780273 C4.68331055,4.34382812 4.33506836,4.68723633 3.90699219,4.68494141" id="Fill-10" fill="#9C36B1" sketch:type="MSShapeGroup" mask="url(#mask-4)"></path>
                </g>
            </g>
        </g>
    </g>
</svg>