<?xml version="1.0" encoding="UTF-8" standalone="no"?>
<svg width="46px" height="46px" viewBox="0 0 46 46" version="1.1" xmlns="http://www.w3.org/2000/svg" xmlns:xlink="http://www.w3.org/1999/xlink" xmlns:sketch="http://www.bohemiancoding.com/sketch/ns">
    <!-- Generator: Sketch 3.4.4 (17249) - http://www.bohemiancoding.com/sketch -->
    <title>Oval 41 Copy + Page 1</title>
    <desc>Created with Sketch.</desc>
    <defs>
        <path id="path-1" d="M0,0.0122588832 L25.9719587,0.0122588832 L25.9719587,21 L0,21"></path>
    </defs>
    <g id="Page-1" stroke="none" stroke-width="1" fill="none" fill-rule="evenodd" sketch:type="MSPage">
        <g id="Recetas" sketch:type="MSArtboardGroup" transform="translate(-1003.000000, -793.000000)">
            <g id="Oval-41-Copy-+-Page-1" sketch:type="MSLayerGroup" transform="translate(1003.000000, 793.000000)">
                <circle id="Oval-41-Copy" fill="#FFFFFF" sketch:type="MSShapeGroup" cx="23" cy="23" r="23"></circle>
                <g id="Page-1" transform="translate(10.000000, 12.000000)">
                    <mask id="mask-2" sketch:name="Clip 2" fill="white">
                        <use xlink:href="#path-1"></use>
                    </mask>
                    <g id="Clip-2"></g>
                    <path d="M15.4283355,14.0482005 C16.8066579,13.1158858 18.1617736,12.2024391 19.5135587,11.2840888 C20.7678975,10.4319365 22.0518893,9.6182665 23.2634678,8.70972335 C25.2118562,7.24857107 25.4192116,4.27190102 23.7517736,2.50310406 C22.2174512,0.87565736 19.8966826,0.636875635 17.999757,1.91808883 C15.5909967,3.54500254 13.1855669,5.1768198 10.7789554,6.80703807 C10.7048231,6.85724619 10.633914,6.91235787 10.5574182,6.96810914 C12.1852116,9.3341802 13.7987157,11.6795711 15.4283355,14.0482005 M19.986286,0.0122055838 L21.1022446,0.0122055838 C21.1574678,0.0291548223 21.2116165,0.0531395939 21.2681289,0.0620939086 C23.3701537,0.394576142 24.8263686,1.54019543 25.6148562,3.49820558 C25.7811702,3.91127665 25.8553025,4.36091117 25.9719802,4.79359645 L25.9719802,5.95126142 C25.9568314,5.97993655 25.9320132,6.00733249 25.928038,6.0375 C25.7049967,7.72901269 24.8321702,9.00340355 23.4226909,9.95490609 C18.4760298,13.2939061 13.5387157,16.6465508 8.58775702,19.979368 C8.13952562,20.2810431 7.63177355,20.5078858 7.12799669,20.7119162 C6.76775702,20.8578503 6.36787273,20.9074188 5.9857157,21.0000533 L4.86975702,21.0000533 C4.8148562,20.9828909 4.76113719,20.9584797 4.70494711,20.949632 C2.60281488,20.6174695 1.14466612,19.4739822 0.35682314,17.5143731 C0.190616529,17.1010888 0.116484298,16.6514543 2.14876036e-05,16.2186624 L2.14876036e-05,15.0609975 C0.0150628099,15.0323223 0.0398809917,15.0048198 0.0437487603,14.9746523 C0.264856198,13.2823934 1.13800496,12.0070431 2.54683967,11.0557538 C7.49317851,7.71590102 12.4317818,4.36506853 17.3812364,1.02979949 C17.7887488,0.755093909 18.2407405,0.529850254 18.6991785,0.349484772 C19.1087322,0.188307107 19.5557818,0.120936548 19.986286,0.0122055838" id="Fill-1" fill="#00B0B3" sketch:type="MSShapeGroup" mask="url(#mask-2)"></path>
                </g>
            </g>
        </g>
    </g>
</svg>