<?xml version="1.0" encoding="UTF-8" standalone="no"?>
<svg width="46px" height="46px" viewBox="0 0 46 46" version="1.1" xmlns="http://www.w3.org/2000/svg" xmlns:xlink="http://www.w3.org/1999/xlink" xmlns:sketch="http://www.bohemiancoding.com/sketch/ns">
    <!-- Generator: Sketch 3.4.4 (17249) - http://www.bohemiancoding.com/sketch -->
    <title>Oval 41 + Page 1</title>
    <desc>Created with Sketch.</desc>
    <defs>
        <path id="path-1" d="M0,0.106043269 L25.9719587,0.106043269 L25.9719587,23 L0,23"></path>
    </defs>
    <g id="Page-1" stroke="none" stroke-width="1" fill="none" fill-rule="evenodd" sketch:type="MSPage">
        <g id="Recetas" sketch:type="MSArtboardGroup" transform="translate(-1065.000000, -793.000000)">
            <g id="Oval-41-+-Page-1" sketch:type="MSLayerGroup" transform="translate(1065.000000, 793.000000)">
                <circle id="Oval-41" fill="#FFFFFF" sketch:type="MSShapeGroup" cx="23" cy="23" r="23"></circle>
                <g id="Page-1" transform="translate(10.000000, 10.000000)">
                    <g id="Group-3">
                        <mask id="mask-2" sketch:name="Clip 2" fill="white">
                            <use xlink:href="#path-1"></use>
                        </mask>
                        <g id="Clip-2"></g>
                        <path d="M25.6148669,3.72210769 C24.8262719,1.69103077 23.3701645,0.502660577 21.2681397,0.157771154 C21.2116273,0.148482692 21.1574785,0.123602885 21.1022554,0.106021154 L19.9862967,0.106021154 C19.5557926,0.218809615 19.108743,0.288694231 18.6991893,0.455886538 C18.2407512,0.642982692 17.7887595,0.876631731 17.3811397,1.16158846 C12.4317926,4.62131923 7.49318926,8.09719423 2.54685041,11.5616798 C1.1380157,12.5484683 0.264866942,13.8714106 0.0437595041,15.6268192 C0.0397842975,15.6581125 0.0150735537,15.6866413 3.22314045e-05,15.7163865 L3.22314045e-05,16.9172519 C0.116495041,17.3661942 0.190627273,17.8326077 0.356726446,18.2613144 C1.14467686,20.29405 2.60282562,21.4802087 4.70495785,21.8247663 C4.76114793,21.8339442 4.81486694,21.8592663 4.86976777,21.8769587 L5.98572645,21.8769587 C6.36788347,21.7809779 6.76776777,21.7295596 7.12800744,21.5781798 C7.6317843,21.3665356 8.13953636,21.1312279 8.58776777,20.8182952 C9.92332975,19.8856894 11.2577099,18.9515356 12.5917678,18.0166077 L6.91624711,13.7726654 L14.1711066,13.7726654 L14.3855529,13.0935019 C13.1085446,11.1681365 11.837338,9.25128558 10.5574289,7.32149712 C10.6339248,7.26366538 10.7048339,7.20649712 10.7789661,7.15441538 C13.1855777,5.4633625 15.5910074,3.77065096 17.9997678,2.08302596 C19.8966934,0.753891346 22.217462,1.00169423 23.7517843,2.68987212 C25.4192223,4.524675 25.2118669,7.612425 23.2634785,9.12810288 C22.0519,10.07055 20.7679083,10.9145837 19.5135694,11.7985356 C19.1099248,12.08305 18.7056355,12.3671221 18.3008091,12.6514154 L18.6523463,13.7647038 C20.2419992,12.6490933 21.8318669,11.5335933 23.4227017,10.4197519 C24.832181,9.43274231 25.7050074,8.11079519 25.9280488,6.35616058 C25.932024,6.32486731 25.9568421,6.29644904 25.9719909,6.26670385 L25.9719909,5.06583846 C25.8553132,4.61700673 25.781181,4.15059327 25.6148669,3.72210769" id="Fill-1" fill="#00B0B3" sketch:type="MSShapeGroup" mask="url(#mask-2)"></path>
                    </g>
                    <path d="M16.3800537,9.39350962 L18.0208471,14.5907356 L23.3303264,14.5907356 L19.0348471,17.802774 L20.6755331,23 L16.3800537,19.7879615 L12.0845744,23 L13.7252603,17.802774 L9.42978099,14.5907356 L14.7392603,14.5907356 L16.3800537,9.39350962 Z" id="Fill-4" fill="#00B0B3" sketch:type="MSShapeGroup"></path>
                </g>
            </g>
        </g>
    </g>
</svg>