<?xml version="1.0" encoding="UTF-8" standalone="no"?>
<svg width="27px" height="28px" viewBox="0 0 27 28" version="1.1" xmlns="http://www.w3.org/2000/svg" xmlns:xlink="http://www.w3.org/1999/xlink" xmlns:sketch="http://www.bohemiancoding.com/sketch/ns">
    <!-- Generator: Sketch 3.4.4 (17249) - http://www.bohemiancoding.com/sketch -->
    <title>Page 1</title>
    <desc>Created with Sketch.</desc>
    <defs>
        <path id="path-1" d="M0,0.11592 L26.9580138,0.11592 L26.9580138,27.84 L0,27.84 L0,0.11592 Z"></path>
    </defs>
    <g id="Page-1" stroke="none" stroke-width="1" fill="none" fill-rule="evenodd" sketch:type="MSPage">
        <g id="Consulta-1-Copy" sketch:type="MSArtboardGroup" transform="translate(-766.000000, -101.000000)">
            <g id="Submenu-de-consultas" sketch:type="MSLayerGroup" transform="translate(292.000000, 97.000000)">
                <g id="Page-1" transform="translate(474.000000, 4.000000)">
                    <g id="Group-3">
                        <mask id="mask-2" sketch:name="Clip 2" fill="white">
                            <use xlink:href="#path-1"></use>
                        </mask>
                        <g id="Clip-2"></g>
                        <path d="M1.80748899,20.916924 C1.80748899,21.775404 1.80699358,22.612164 1.80810826,23.449044 C1.80823211,23.547924 1.81070917,23.647764 1.82358991,23.745684 C1.84006239,23.870364 1.86037431,23.995644 1.89257615,24.117204 C2.22153028,25.357644 3.26511743,26.105724 4.69054404,26.106924 C8.70276881,26.110644 12.7148697,26.108244 16.7270945,26.107644 C16.7955853,26.107644 16.8642,26.099604 16.9583284,26.093604 C16.8871128,25.982004 16.8347229,25.898964 16.7813422,25.816644 C16.3306404,25.120524 16.102255,24.362004 16.1011404,23.540124 C16.1000257,22.764444 16.1007688,21.988764 16.1007688,21.213084 L16.1007688,20.916924 L1.80748899,20.916924 Z M8.88978716,1.858404 C8.34805321,7.629204 7.80693853,13.391844 7.26297523,19.185564 L17.9030807,19.185564 L17.9030807,19.505964 C17.9030807,20.787204 17.9006037,22.068324 17.9054339,23.349444 C17.9063009,23.564724 17.9225257,23.782524 17.9598055,23.994564 C18.1764248,25.226604 19.3526587,26.128164 20.6856908,26.092644 C21.9684385,26.058564 23.1035532,25.053804 23.2219569,23.818164 C23.3181908,22.813404 23.3806128,21.805644 23.4602505,20.799324 C23.5646587,19.478844 23.6722872,18.158604 23.7766954,16.838004 C23.8767688,15.571404 23.9731266,14.304444 24.0735716,13.037844 C24.1776083,11.726484 24.2848651,10.415364 24.3903881,9.104004 C24.4763422,8.035044 24.5626679,6.966204 24.6476312,5.897124 C24.7483239,4.630284 24.8479018,3.363444 24.9467367,2.096484 C24.9526817,2.019804 24.9474798,1.942404 24.9474798,1.858404 L8.88978716,1.858404 Z M21.2014156,27.839964 L3.87633303,27.839964 C3.72486055,27.803004 3.57400734,27.763644 3.4219156,27.729324 C1.55755321,27.307524 0.0964568807,25.674444 0.0304431193,23.835684 C-0.0239284404,22.321644 0.0117412844,20.804604 0.00876880734,19.288884 C0.00876880734,19.256364 0.0257366972,19.223844 0.0403513761,19.170924 L5.44220917,19.170924 C5.55664954,17.955564 5.66972752,16.762764 5.78119541,15.569844 C5.9003422,14.295444 6.01738349,13.020804 6.13690183,11.746404 C6.25964037,10.436124 6.38485596,9.126084 6.50796606,7.815804 C6.62773211,6.541404 6.74601193,5.266884 6.86540642,3.992484 C6.98653486,2.700324 7.10815872,1.408164 7.22953486,0.115884 L26.9018835,0.115884 C26.8629936,0.691044 26.828067,1.266324 26.7843468,1.841124 C26.6877413,3.108204 26.5880394,4.375044 26.4870991,5.641764 C26.3834339,6.944364 26.2753101,8.246724 26.1720165,9.549324 C26.0707046,10.825044 25.9740991,12.101244 25.8734064,13.376964 C25.7686266,14.706564 25.661989,16.035924 25.5552275,17.365164 C25.4707596,18.416004 25.383567,19.466724 25.2997183,20.517564 C25.217356,21.550524 25.1120807,22.582404 25.0625394,23.616924 C24.9856266,25.223244 24.2552642,26.451804 22.8283514,27.249684 C22.3335578,27.526284 21.7463697,27.647724 21.2014156,27.839964 L21.2014156,27.839964 Z" id="Fill-1" fill="#C98B26" sketch:type="MSShapeGroup" mask="url(#mask-2)"></path>
                    </g>
                    <path d="M20.8518399,8.79612 C20.8071289,9.36756 20.763161,9.92856 20.71845,10.49952 L11.6443445,10.49952 C11.6985922,9.92952 11.7518491,9.36984 11.8064683,8.79612 L20.8518399,8.79612 Z" id="Fill-6" fill="#C98B26" sketch:type="MSShapeGroup"></path>
                    <path d="M11.9696821,7.034748 C12.0244252,6.453228 12.0764436,5.899188 12.1299482,5.331108 L21.12615,5.331108 C21.0809436,5.903028 21.036728,6.464028 20.9916454,7.034748 L11.9696821,7.034748 Z" id="Fill-8" fill="#C98B26" sketch:type="MSShapeGroup"></path>
                    <path d="M15.0552743,12.25854 L18.7875908,12.25854 C18.742756,12.83238 18.6990358,13.3923 18.6543248,13.96362 L14.8967422,13.96362 C14.9495037,13.39674 15.001522,12.8373 15.0552743,12.25854" id="Fill-10" fill="#C98B26" sketch:type="MSShapeGroup"></path>
                    <path d="M13.2887683,13.965348 L11.3195023,13.965348 C11.3727592,13.394148 11.4250252,12.834708 11.4785298,12.261348 L13.4227775,12.261348 C13.3775711,12.835548 13.3336032,13.395708 13.2887683,13.965348" id="Fill-12" fill="#C98B26" sketch:type="MSShapeGroup"></path>
                </g>
            </g>
        </g>
    </g>
</svg>