<?xml version="1.0" encoding="UTF-8" standalone="no"?>
<svg width="21px" height="21px" viewBox="0 0 21 21" version="1.1" xmlns="http://www.w3.org/2000/svg" xmlns:xlink="http://www.w3.org/1999/xlink" xmlns:sketch="http://www.bohemiancoding.com/sketch/ns">
    <!-- Generator: Sketch 3.4.4 (17249) - http://www.bohemiancoding.com/sketch -->
    <title>Page 1</title>
    <desc>Created with Sketch.</desc>
    <defs>
        <path id="path-1" d="M0,0 L21,0 L21,21 L0,21 L0,0 Z"></path>
    </defs>
    <g id="Page-1" stroke="none" stroke-width="1" fill="none" fill-rule="evenodd" sketch:type="MSPage">
        <g id="Consulta-1-Copy" sketch:type="MSArtboardGroup" transform="translate(-569.000000, -716.000000)">
            <g id="citas-del-dia" sketch:type="MSLayerGroup" transform="translate(288.000000, 502.000000)">
                <g id="Page-1" transform="translate(281.000000, 214.000000)">
                    <path d="M21,0 L21,8.26382813 L12.6039844,8.26382813 C13.6531875,7.2324375 14.67225,6.23071875 15.72825,5.19267187 C15.4047656,4.93110938 15.1073906,4.65510937 14.7760781,4.42879687 C13.2319687,3.373875 11.5183594,2.95064063 9.66754687,3.18253125 C7.06884375,3.50807813 5.18442187,4.88957813 3.9451875,7.177875 C3.90107812,7.25929688 3.86803125,7.348125 3.83995312,7.43667188 C3.56170312,8.31346875 2.6424375,8.77584375 1.78457812,8.468625 C0.94659375,8.16853125 0.519046875,7.22010938 0.86821875,6.37898438 C1.66242187,4.46564063 2.94501562,2.94670312 4.65117187,1.78359375 C6.11596875,0.7850625 7.7341875,0.2034375 9.50151562,0.04115625 C9.553875,0.036375 9.6046875,0.014109375 9.65625,0 L11.390625,0 C11.4412969,0.014859375 11.4911719,0.038390625 11.5428281,0.043265625 C13.5652031,0.2356875 15.3709687,0.971015625 16.9697812,2.21714062 C17.2995937,2.47420313 17.6080312,2.75859375 17.9736562,3.07082812 C18.0216562,2.99910937 18.0562031,2.92448438 18.1106719,2.86973438 C18.8858906,2.09039063 19.6645781,1.31446875 20.4405937,0.535921875 C20.6150625,0.360890625 20.7824531,0.178828125 20.953125,0 L21,0 Z" id="Fill-1" fill="#00B0B3" sketch:type="MSShapeGroup"></path>
                    <mask id="mask-2" sketch:name="Clip 4" fill="white">
                        <use xlink:href="#path-1"></use>
                    </mask>
                    <g id="Clip-4"></g>
                    <path d="M0,21 L0,12.7655156 L8.41523438,12.7655156 C7.36401562,13.7931094 6.3459375,14.7883594 5.31501563,15.796125 C5.80785938,16.3049531 6.35442188,16.7001094 6.95840625,17.0146875 C9.88242188,18.5374219 13.3331719,18.0313125 15.6913594,15.7236094 C16.3606406,15.068625 16.8876094,14.30625 17.2573594,13.44075 C17.6331094,12.5614219 18.603,12.1851562 19.4310469,12.5965312 C20.2615313,13.009125 20.52225,13.9819219 20.0861719,14.8378125 C19.5910313,15.809625 19.0339688,16.7326875 18.2956875,17.5403437 C16.6191094,19.3746094 14.5525781,20.4876094 12.1028438,20.8921875 C11.85075,20.9338125 11.5968281,20.9643281 11.34375,21 L9.703125,21 C9.643875,20.985 9.58532813,20.9616094 9.5251875,20.9562187 C7.76695313,20.7987187 6.149625,20.2337344 4.69354688,19.2388125 C4.12978125,18.8535937 3.609375,18.4049062 3.05540625,17.9744062 C3.01739063,18.0106406 2.95528125,18.0675 2.89579688,18.1269844 C2.08434375,18.937875 1.27270313,19.7484844 0.462703125,20.5607812 C0.320390625,20.7034687 0.185296875,20.8534219 0.046875,21 L0,21 Z" id="Fill-3" fill="#00B0B3" sketch:type="MSShapeGroup" mask="url(#mask-2)"></path>
                </g>
            </g>
        </g>
    </g>
</svg>