<?xml version="1.0" encoding="UTF-8" standalone="no"?>
<svg width="160px" height="56px" viewBox="0 0 160 56" version="1.1" xmlns="http://www.w3.org/2000/svg" xmlns:xlink="http://www.w3.org/1999/xlink" xmlns:sketch="http://www.bohemiancoding.com/sketch/ns">
    <!-- Generator: Sketch 3.4.4 (17249) - http://www.bohemiancoding.com/sketch -->
    <title>Page 1</title>
    <desc>Created with Sketch.</desc>
    <defs>
        <path id="path-1" d="M0,0.0698299595 L161.889206,0.0698299595 L161.889206,56 L0,56 L0,0.0698299595 Z"></path>
    </defs>
    <g id="Page-1" stroke="none" stroke-width="1" fill="none" fill-rule="evenodd" sketch:type="MSPage">
        <g id="Consulta-1" sketch:type="MSArtboardGroup" transform="translate(-62.000000, -9.000000)">
            <g id="Page-1" sketch:type="MSLayerGroup" transform="translate(62.000000, 9.000000)">
                <path d="M40.3300699,7.39959514 L40.3300699,12.61417 L43.5020979,12.61417 L43.5020979,41.4076923 L41.1230769,41.4076923 L41.1230769,46.5089069 L52.565035,46.5089069 L52.565035,41.294332 L49.393007,41.294332 L49.393007,7.39959514 L40.3300699,7.39959514 Z" id="Fill-1" fill="#808184" sketch:type="MSShapeGroup"></path>
                <g id="Group-41">
                    <path d="M50.5258741,20.5493927 L50.5258741,25.537247 L53.358042,25.537247 L53.358042,41.9744939 C53.358042,41.9744939 53.5846154,46.565587 57.9461538,46.565587 L75.448951,46.565587 L75.448951,41.1809717 L72.7300699,41.1809717 L72.7300699,20.5493927 L63.8937063,20.5493927 L63.8937063,25.9906883 L66.9524476,25.9906883 L66.9524476,41.1809717 L59.1356643,41.1809717 L59.1356643,20.5493927 L50.5258741,20.5493927 Z" id="Fill-2" fill="#808184" sketch:type="MSShapeGroup"></path>
                    <path d="M77.4881119,12.954251 L77.4881119,20.5493927 L74.5426573,20.5493927 L74.5426573,25.4238866 L77.4881119,25.4238866 L77.4881119,42.0878543 C77.4881119,42.0878543 78.0545455,46.2255061 81.6230769,46.2255061 L86.8909091,46.2255061 L86.8909091,41.294332 L83.0391608,41.294332 L83.0391608,25.7639676 L90.1762238,25.7639676 L90.1762238,46.2255061 L113.173427,46.2255061 C113.173427,46.2255061 117.167916,45.2052632 117.167916,42.2306883 L117.167916,34.7194332 C117.167916,34.7194332 116.374909,30.9127935 113.356951,30.9127935 L104.223776,30.9127935 L104.223776,25.537247 L117.167916,25.537247 L117.167916,20.5493927 L102.524476,20.5493927 C99.2958042,20.5493927 98.5027972,22.2497976 98.5027972,24.5736842 L98.5027972,31.3186235 C98.5027972,34.3045344 99.0692308,35.4290688 102.610573,35.4290688 L111.702965,35.4290688 L111.702965,41.4099595 L95.8541538,41.4099595 L95.8541538,20.5516599 L83.0391608,20.5516599 L83.0391608,12.9565182 L77.4881119,12.9565182 L77.4881119,12.954251 Z" id="Fill-4" fill="#808184" sketch:type="MSShapeGroup"></path>
                    <path d="M92.6685315,12.954251 C94.3578629,12.954251 95.7272727,14.3245506 95.7272727,16.0149798 C95.7272727,17.7054089 94.3578629,19.0757085 92.6685315,19.0757085 C90.9792,19.0757085 89.6097902,17.7054089 89.6097902,16.0149798 C89.6097902,14.3245506 90.9792,12.954251 92.6685315,12.954251" id="Fill-6" fill="#6C6E70" sketch:type="MSShapeGroup"></path>
                    <mask id="mask-2" sketch:name="Clip 9" fill="white">
                        <use xlink:href="#path-1"></use>
                    </mask>
                    <g id="Clip-9"></g>
                    <path d="M33.6461538,41.861247 L25.2629371,41.861247 L25.2629371,36.3065911 L33.6461538,36.3065911 L33.6461538,41.861247 Z M34.2125874,20.5495061 L5.0979021,20.5495061 C5.0979021,20.5495061 0.566433566,21.3430283 0.566433566,25.083919 L0.566433566,32.6790607 C0.566433566,32.6790607 1.13286713,35.9007611 3.7951049,35.9007611 L13.3678322,35.9007611 L13.3678322,41.3987368 L0,41.3987368 L0,46.4999514 L15.5202797,46.4999514 C15.5202797,46.4999514 19.1454545,45.4797085 19.1454545,42.4189798 L19.1454545,34.7104777 C19.1454545,34.7104777 18.4657343,31.2529879 15.6902098,31.2529879 L6.11748252,31.2529879 L6.11748252,25.764081 L33.6461538,25.764081 L33.6461538,31.6588178 L24.6965035,31.6588178 C22.5825734,31.6588178 20.4482517,34.0779271 20.4482517,35.8531498 L20.4482517,42.2013279 C20.4482517,42.2013279 21.171021,46.495417 24.1436643,46.495417 L38.7440559,46.495417 L38.7440559,25.083919 C38.7440559,25.083919 38.5174825,20.5495061 34.2125874,20.5495061 L34.2125874,20.5495061 Z" id="Fill-8" fill="#808184" sketch:type="MSShapeGroup" mask="url(#mask-2)"></path>
                    <path d="M105.870965,15.8359838 L109.101902,15.8359838 L109.101902,19.3320162 L105.870965,19.3320162 L105.870965,15.8359838 Z" id="Fill-10" fill="#00A79D" sketch:type="MSShapeGroup" mask="url(#mask-2)"></path>
                    <path d="M112.677231,6.2457004 L109.260503,6.2457004 L109.260503,2.82675304 L112.677231,2.82675304 L112.677231,6.2457004 Z" id="Fill-11" fill="#00A79D" sketch:type="MSShapeGroup" mask="url(#mask-2)"></path>
                    <path d="M127.463413,18.6133117 L131.521343,18.6133117 L131.521343,22.6738785 L127.463413,22.6738785 L127.463413,18.6133117 Z" id="Fill-12" fill="#FEFEFE" sketch:type="MSShapeGroup" mask="url(#mask-2)"></path>
                    <path d="M118.101399,0.600242915 L118.101399,3.75392713 L115.00414,3.75392713 L115.00414,0.597975709 L118.101399,0.600242915 Z" id="Fill-13" fill="#00A79D" sketch:type="MSShapeGroup" mask="url(#mask-2)"></path>
                    <path d="M131.229063,3.75404049 L127.773818,3.75404049 L127.773818,0.0698299595 L131.229063,0.0698299595 L131.229063,3.75404049 Z" id="Fill-14" fill="#00A79D" sketch:type="MSShapeGroup" mask="url(#mask-2)"></path>
                    <path d="M118.101399,6.24785425 L118.101399,9.33125506 L112.552615,9.33125506 L112.552615,9.32672065 L115.00414,9.32672065 L115.00414,6.24785425 L118.101399,6.24785425 Z" id="Fill-15" fill="#00A79D" sketch:type="MSShapeGroup" mask="url(#mask-2)"></path>
                    <path d="M127.782881,6.90761134 L124.785315,6.90761134 L124.785315,3.75392713 L127.773818,3.75392713 L127.782881,6.90761134 Z" id="Fill-16" fill="#00A79D" sketch:type="MSShapeGroup" mask="url(#mask-2)"></path>
                    <path d="M127.463413,18.6133117 L124.785315,18.6133117 L124.785315,16.0196275 L127.463413,16.0196275 L127.463413,18.6133117 Z" id="Fill-17" fill="#00A79D" sketch:type="MSShapeGroup" mask="url(#mask-2)"></path>
                    <path d="M118.101399,18.8876437 L112.527692,18.8876437 L112.527692,16.0196275 L118.101399,16.0196275 L118.101399,18.8876437 Z" id="Fill-18" fill="#00A79D" sketch:type="MSShapeGroup" mask="url(#mask-2)"></path>
                    <path d="M112.527692,15.8359838 L109.385119,15.8359838 L109.385119,12.5757409 L112.527692,12.5757409 L112.527692,15.8359838 Z" id="Fill-19" fill="#00A79D" sketch:type="MSShapeGroup" mask="url(#mask-2)"></path>
                    <path d="M121.443357,25.5759028 L118.101399,25.5759028 L118.101399,21.8531498 L121.443357,21.8531498 L121.443357,25.5759028 Z" id="Fill-20" fill="#00A79D" sketch:type="MSShapeGroup" mask="url(#mask-2)"></path>
                    <path d="M130.615049,6.90761134 L130.615049,12.1040486 L130.61958,12.1040486 L130.61958,16.0149798 L127.463413,16.0149798 L127.463413,16.0195142 L124.785315,16.0195142 L124.785315,21.8530364 L118.101399,21.8530364 L118.101399,16.0195142 L112.527692,16.0195142 L112.527692,12.5756275 L112.552615,12.5756275 L112.552615,9.33125506 L118.101399,9.33125506 L118.101399,3.75392713 L124.785315,3.75392713 L124.785315,9.32672065 L127.782881,9.32672065 L127.782881,6.90761134 L130.615049,6.90761134 Z" id="Fill-21" fill="#00A79D" sketch:type="MSShapeGroup" mask="url(#mask-2)"></path>
                    <path d="M130.615049,6.90749798 L133.390573,6.90749798 L133.390573,9.3311417 L130.615049,9.3311417 L130.615049,6.90749798 Z" id="Fill-22" fill="#00A79D" sketch:type="MSShapeGroup" mask="url(#mask-2)"></path>
                    <path d="M112.527692,16.0627045 L115.303217,16.0627045 L115.303217,18.8876437 L112.527692,18.8876437 L112.527692,16.0627045 Z" id="Fill-23" fill="#9EDBF2" sketch:type="MSShapeGroup" mask="url(#mask-2)"></path>
                    <path d="M48.2624056,55.877004 L47.4535385,55.877004 L47.2677483,52.571417 C47.1800643,51.0161134 47.1401874,49.9505263 47.1476643,49.3746559 L47.1159441,49.3746559 C46.8531189,50.2497976 46.546565,51.177085 46.1960559,52.1565182 L44.8502098,55.8520648 L44.2316643,55.8520648 L42.990042,52.2245344 C42.6572056,51.287498 42.3719497,50.3339109 42.1358601,49.3678543 L42.1018741,49.3678543 C42.0808028,50.4123563 42.0332224,51.5035628 41.9591329,52.6417004 L41.762014,55.8724696 L40.9735385,55.8724696 L41.4787972,48.4927126 L42.521035,48.4927126 L43.8328951,52.2245344 C44.1349175,53.0785911 44.3857343,53.9038543 44.5851189,54.7003239 L44.6077762,54.7003239 C44.8280056,53.8659919 45.0903776,53.0434494 45.393986,52.2358704 L46.7534266,48.4927126 L47.7956643,48.4927126 L48.2624056,55.877004 Z" id="Fill-24" fill="#00A79D" sketch:type="MSShapeGroup" mask="url(#mask-2)"></path>
                    <path d="M53.0566993,52.7187854 C53.075958,52.343336 52.984649,51.9703806 52.7938741,51.6463968 C52.5589175,51.2702672 52.1377175,51.0521619 51.694993,51.0773279 C51.2586126,51.0680324 50.8464755,51.2772955 50.5961119,51.6350607 C50.3604755,51.9502024 50.2197734,52.326332 50.1905455,52.7187854 L53.0566993,52.7187854 L53.0566993,52.7187854 Z M53.8882238,52.9046964 C53.8904895,53.0475304 53.8791608,53.1903644 53.8542378,53.3309312 L50.1882797,53.3309312 C50.1882797,54.0065587 50.3740699,54.5166802 50.7456503,54.8612955 C51.0902685,55.1775709 51.5477203,55.3410364 52.0144615,55.3147368 C52.5038601,55.3231255 52.9891804,55.2256356 53.4373427,55.0290688 L53.5914126,55.6321457 C53.0571524,55.8663482 52.477351,55.9788016 51.8943776,55.9608907 C51.2055944,55.9948988 50.5358434,55.7296356 50.0568671,55.2331174 C49.5876336,54.7023644 49.343614,54.0092794 49.3771469,53.3014575 C49.3481455,52.5641619 49.582649,51.8406964 50.0387413,51.2609717 C50.4628867,50.7354332 51.108621,50.439336 51.7833566,50.4606478 C52.4628503,50.4227854 53.1088112,50.7581053 53.4690629,51.3357895 C53.7570378,51.8073684 53.9027245,52.3521781 53.8882238,52.9046964 L53.8882238,52.9046964 Z" id="Fill-25" fill="#00A79D" sketch:type="MSShapeGroup" mask="url(#mask-2)"></path>
                    <path d="M58.6485315,53.6936842 L58.6485315,52.7165182 C58.6501175,52.573004 58.6387888,52.4294899 58.6145455,52.2880162 C58.5397762,51.9687935 58.3671273,51.6808583 58.1206154,51.4650202 C57.4923273,50.9440162 56.5611105,51.0313036 56.0406713,51.66 C56.0234517,51.6806316 56.0069119,51.7019433 55.9908252,51.7234818 C55.6829119,52.1726154 55.5286154,52.7097166 55.5512727,53.2538462 C55.5283888,53.7678219 55.6704503,54.2754494 55.9568392,54.7025911 C56.2239692,55.0991255 56.6755301,55.3310607 57.1531469,55.317004 C57.5666434,55.3283401 57.9626937,55.1505911 58.2293706,54.8340891 C58.5048839,54.5187206 58.6532895,54.1124372 58.6462657,53.6936842 L58.6485315,53.6936842 Z M59.5231049,55.877004 L58.7776783,55.877004 L58.7323636,54.9451822 L58.7097063,54.9451822 C58.3743776,55.6389474 57.7837007,55.98583 56.9379021,55.98583 C56.321849,55.9944453 55.7361566,55.7173927 55.3518881,55.2353846 C54.913242,54.6898947 54.6878014,54.0033846 54.7174825,53.3037247 C54.6828168,52.5451174 54.9297818,51.8005668 55.4107972,51.2133603 C55.8215748,50.7306721 56.4267524,50.4577004 57.0602517,50.4697166 C57.8231245,50.4697166 58.3517203,50.7433684 58.6462657,51.2904453 L58.6462657,48.1140891 L59.4777902,48.1140891 L59.4777902,54.5620243 C59.4777902,55.021587 59.4929706,55.4598381 59.5231049,55.877004 L59.5231049,55.877004 Z" id="Fill-26" fill="#00A79D" sketch:type="MSShapeGroup" mask="url(#mask-2)"></path>
                    <path d="M61.917986,55.8771174 L61.0864615,55.8771174 L61.0864615,50.5877247 L61.917986,50.5877247 L61.917986,55.8771174 Z M62.0607273,49.0120162 C62.0700168,49.1856842 61.9968336,49.3536842 61.8636084,49.4654575 C61.7562126,49.5448097 61.6257063,49.5869798 61.492028,49.5856194 C61.1943105,49.5897004 60.9493846,49.3516437 60.9453063,49.0535061 C60.9450797,49.0412632 60.9453063,49.0287935 60.945986,49.0163239 C60.9419077,48.8653279 60.9992308,48.7188664 61.1045874,48.6104939 C61.3282154,48.3919352 61.6852951,48.3919352 61.9089231,48.6104939 C62.0097483,48.7195466 62.0641259,48.8635142 62.0607273,49.0120162 L62.0607273,49.0120162 Z" id="Fill-27" fill="#00A79D" sketch:type="MSShapeGroup" mask="url(#mask-2)"></path>
                    <path d="M67.2152727,50.7621862 L67.0068252,51.4196761 C66.6626601,51.238753 66.2783916,51.1482915 65.8898182,51.1566802 C65.3573706,51.1278866 64.8416895,51.3480324 64.4941259,51.7529555 C64.1538126,52.1748826 63.9768587,52.7051822 63.9956643,53.2470445 C63.9691552,53.7934413 64.155172,54.3289555 64.5145175,54.7411336 C64.8577762,55.1163563 65.3478545,55.3226721 65.8558322,55.305668 C66.2607189,55.3034008 66.6601678,55.2136194 67.0272168,55.0426721 L67.1903497,55.6774899 C66.7242881,55.8924211 66.214951,55.997166 65.7017622,55.9835628 C65.0064084,56.012583 64.3314462,55.7436923 63.8461259,55.2444534 C63.3612587,54.7123401 63.1070434,54.0095061 63.1392168,53.2901215 C63.1111217,52.5403563 63.3855021,51.8107692 63.9005035,51.2655061 C64.801586,50.4413765 66.1105007,50.2425425 67.2152727,50.7621862" id="Fill-28" fill="#00A79D" sketch:type="MSShapeGroup" mask="url(#mask-2)"></path>
                    <path d="M71.0353007,54.119919 L71.0353007,53.131417 C69.5111413,53.1026235 68.7491748,53.5168421 68.7491748,54.3738462 C68.7294629,54.6420567 68.8250769,54.9061862 69.012,55.0993522 C69.1903133,55.2641781 69.4264028,55.3521457 69.6690629,55.3442105 C69.984,55.3505587 70.2921399,55.2508016 70.5436364,55.0608097 C70.7552559,54.8968907 70.912951,54.6733441 70.9967832,54.4191903 C71.0235189,54.3217004 71.0355273,54.2208097 71.033035,54.119919 L71.0353007,54.119919 Z M71.9415944,55.877004 L71.1939021,55.877004 L71.1168671,55.1968421 L71.0851469,55.1968421 C70.732372,55.7282753 70.1244755,56.0329879 69.4878042,55.997166 C69.0477986,56.0175709 68.6207077,55.8463968 68.3164196,55.5278543 C68.0535944,55.2517085 67.9117594,54.8819271 67.9221818,54.5008097 C67.9022434,53.9038543 68.2110629,53.344081 68.7265175,53.042996 C69.2628168,52.704502 70.0338462,52.538996 71.0398322,52.5464777 L71.0398322,52.4263158 C71.0398322,51.5527611 70.6349455,51.1197247 69.8253986,51.1272065 C69.3536727,51.1163239 68.8891972,51.2457814 68.4908811,51.4990283 L68.2937622,50.9299595 C68.7876923,50.6193522 69.3622825,50.4617814 69.9454825,50.4765182 C71.2294741,50.4765182 71.8713566,51.1809393 71.8713566,52.5895547 L71.8713566,54.61417 C71.8632,55.0363239 71.8867636,55.4584777 71.9415944,55.877004 L71.9415944,55.877004 Z" id="Fill-29" fill="#00A79D" sketch:type="MSShapeGroup" mask="url(#mask-2)"></path>
                    <path d="M74.2617063,55.8771174 L73.4301818,55.8771174 L73.4301818,48.1142024 L74.2617063,48.1142024 L74.2617063,55.8771174 Z" id="Fill-30" fill="#00A79D" sketch:type="MSShapeGroup" mask="url(#mask-2)"></path>
                    <path d="M82.4681958,53.8954656 C82.4867748,54.4500243 82.2636,54.9855385 81.8564476,55.3623482 C81.4033007,55.7779271 80.7795441,55.98583 79.984951,55.98583 C79.3466937,56.0187045 78.7138741,55.8541053 78.1723636,55.514251 L78.3989371,54.8340891 C78.8896951,55.1383482 79.4574881,55.2956923 80.0347972,55.2875304 C80.4553175,55.3126964 80.8706266,55.1845992 81.2039161,54.9270445 C81.4855469,54.6878543 81.6416559,54.3328097 81.6276084,53.9634818 C81.6407497,53.6306559 81.5245175,53.3057652 81.3036084,53.0565992 C81.0009063,52.76617 80.6347636,52.550332 80.2341818,52.4263158 C78.9683161,51.944081 78.3354965,51.2503158 78.3354965,50.3450202 C78.3225818,49.8036113 78.5559524,49.2857814 78.9699021,48.937085 C79.4330182,48.5543806 80.0216559,48.3571336 80.6216224,48.3838866 C81.1615469,48.3594008 81.6982993,48.4797895 82.1759161,48.7330364 L81.9244196,49.4131984 C81.5202126,49.1767287 81.0577762,49.058834 80.5899021,49.0731174 C80.1850154,49.0481781 79.7869259,49.1860243 79.4842238,49.4562753 C79.2755497,49.6605506 79.1609035,49.9419109 79.167021,50.2339271 C79.1565986,50.5592713 79.2841594,50.8739595 79.5182098,51.1 C79.8501399,51.3670769 80.2237594,51.5777004 80.6238881,51.7234818 C81.1422881,51.9046316 81.6133343,52.2007287 82.0014545,52.5895547 C82.3152587,52.9507206 82.4820168,53.4168583 82.4681958,53.8954656" id="Fill-31" fill="#00A79D" sketch:type="MSShapeGroup" mask="url(#mask-2)"></path>
                    <path d="M87.5207832,53.2221053 C87.5352839,52.7201457 87.3977538,52.2254413 87.1265455,51.802834 C86.8641734,51.370251 86.390635,51.1108826 85.8849231,51.1226721 C85.369242,51.104081 84.8830154,51.3636761 84.6115804,51.802834 C84.3378797,52.2326964 84.2005762,52.735336 84.2173427,53.2447773 C84.206014,53.7444696 84.3476224,54.2357733 84.6229091,54.6527126 C84.8870937,55.0837085 85.3594993,55.3423968 85.8645315,55.3328745 C86.3754545,55.3376356 86.8510322,55.0721457 87.1152168,54.6345749 C87.3882378,54.2146883 87.5302993,53.7229312 87.523049,53.2221053 L87.5207832,53.2221053 Z M88.3862937,53.1835628 C88.4143888,53.9038543 88.1764867,54.6091822 87.7179021,55.1651012 C87.2529734,55.7194332 86.5576196,56.0266397 85.8350769,55.997166 C85.1376839,56.0250526 84.4674797,55.7257814 84.0224895,55.1877733 C83.5799916,54.6499919 83.3502462,53.9682429 83.3767552,53.2719838 C83.3500196,52.5553198 83.5879217,51.8540729 84.0451469,51.3017814 C84.5105287,50.7531174 85.2024839,50.4495385 85.9211748,50.4787854 C86.6142629,50.4502186 87.2822014,50.7411012 87.7337622,51.2677733 C88.1785259,51.8046478 88.4107636,52.4866235 88.3862937,53.1835628 L88.3862937,53.1835628 Z" id="Fill-32" fill="#00A79D" sketch:type="MSShapeGroup" mask="url(#mask-2)"></path>
                    <path d="M92.3264056,48.157166 L92.194993,48.8033198 C91.9978741,48.7203401 91.7858014,48.6793036 91.5719161,48.6831579 C90.8711245,48.6831579 90.5206154,49.2234332 90.5206154,50.3042105 L90.5206154,50.5898785 L91.8120839,50.5898785 L91.8120839,51.2360324 L90.5206154,51.2360324 L90.5206154,55.8792713 L89.6890909,55.8792713 L89.6890909,51.2337652 L88.954993,51.2337652 L88.954993,50.5876113 L89.6890909,50.5876113 L89.6890909,50.3246154 C89.6890909,49.485749 89.8900615,48.8690688 90.2917762,48.4745749 C90.6203077,48.1505911 91.0680168,47.9766964 91.5288671,47.9939271 C91.8037007,47.9857652 92.0767217,48.0415385 92.3264056,48.157166" id="Fill-33" fill="#00A79D" sketch:type="MSShapeGroup" mask="url(#mask-2)"></path>
                    <path d="M95.2106853,51.2337652 L93.8331189,51.2337652 L93.8331189,54.2650202 C93.8331189,54.9587854 94.0717007,55.305668 94.5490909,55.305668 C94.7362406,55.309749 94.9229371,55.2836761 95.1019301,55.228583 L95.144979,55.8747368 C94.8878182,55.9624777 94.6168364,56.0030607 94.3451748,55.9948988 C93.970649,56.0175709 93.6056392,55.8711093 93.3505175,55.5958704 C93.1164671,55.3299271 92.9993287,54.8862348 92.9993287,54.2650202 L92.9993287,51.2337652 L92.1678042,51.2337652 L92.1678042,50.5876113 L92.9993287,50.5876113 L92.9993287,49.6240486 L93.8308531,49.3497166 L93.8308531,50.5876113 L95.2106853,50.5876113 L95.2106853,51.2337652 Z" id="Fill-34" fill="#00A79D" sketch:type="MSShapeGroup" mask="url(#mask-2)"></path>
                    <path d="M103.23365,50.5876113 L101.536615,55.877004 L100.773063,55.877004 L99.9347413,53.2402429 C99.7247077,52.561668 99.568372,51.9812632 99.4657343,51.4990283 L99.4430769,51.4990283 C99.3105315,52.0914494 99.147172,52.6763887 98.9536783,53.2515789 L98.0677762,55.8792713 L97.2974266,55.8792713 L95.7114126,50.5898785 L96.5678601,50.5898785 L97.3268811,53.3581377 C97.4945455,53.9929555 97.6298098,54.5552227 97.7324476,55.0449393 L97.7551049,55.0449393 C97.8502657,54.61417 98.0104531,54.0557571 98.2354406,53.3694737 L99.1417343,50.5989474 L99.8531748,50.5989474 L100.707357,53.3195951 C100.896092,53.9242591 101.051748,54.4969555 101.174098,55.0381377 L101.196755,55.0381377 C101.284439,54.5846964 101.425594,54.0149474 101.620448,53.328664 L102.417986,50.5921457 L103.244979,50.5921457 L103.23365,50.5876113 Z" id="Fill-35" fill="#00A79D" sketch:type="MSShapeGroup" mask="url(#mask-2)"></path>
                    <path d="M106.890545,54.119919 L106.890545,53.131417 C105.366386,53.1026235 104.60442,53.5168421 104.60442,54.3738462 C104.584708,54.6420567 104.680322,54.9061862 104.867245,55.0993522 C105.045558,55.2641781 105.281648,55.3521457 105.524308,55.3442105 C105.839245,55.3505587 106.147385,55.2508016 106.398881,55.0608097 C106.610501,54.8968907 106.768196,54.6733441 106.852028,54.4191903 C106.878764,54.3217004 106.890772,54.2208097 106.88828,54.119919 L106.890545,54.119919 Z M107.796839,55.877004 L107.04235,55.877004 L106.965315,55.1968421 L106.933594,55.1968421 C106.58082,55.7282753 105.972923,56.0329879 105.336252,55.997166 C104.896246,56.0175709 104.469155,55.8463968 104.164867,55.5278543 C103.902042,55.2517085 103.760207,54.8819271 103.770629,54.5008097 C103.750691,53.9038543 104.05951,53.344081 104.574965,53.042996 C105.111264,52.704502 105.882294,52.538996 106.88828,52.5464777 L106.88828,52.4263158 C106.88828,51.5527611 106.483393,51.1197247 105.673846,51.1272065 C105.20212,51.1163239 104.737645,51.2457814 104.339329,51.4990283 L104.14221,50.9299595 C104.63614,50.6193522 105.21073,50.4617814 105.79393,50.4765182 C107.077922,50.4765182 107.719804,51.1809393 107.719804,52.5895547 L107.719804,54.61417 C107.713913,55.0365506 107.739743,55.4584777 107.796839,55.877004 L107.796839,55.877004 Z" id="Fill-36" fill="#00A79D" sketch:type="MSShapeGroup" mask="url(#mask-2)"></path>
                    <path d="M111.750545,51.2655061 L111.446937,51.2655061 C111.025964,51.2577976 110.634218,51.4802105 110.425091,51.8459109 C110.213698,52.1993684 110.108341,52.606332 110.121483,53.0180567 L110.121483,55.8747368 L109.289958,55.8747368 L109.289958,52.1973279 C109.289958,51.6577328 109.278629,51.121085 109.255972,50.5876113 L109.978741,50.5876113 L110.010462,51.6282591 L110.042182,51.6282591 C110.151617,51.2997409 110.353041,51.0093117 110.62221,50.7916599 C110.868722,50.5889717 111.177768,50.478332 111.496783,50.4787854 C111.581069,50.4776518 111.665354,50.4844534 111.74828,50.4991903 L111.74828,51.2655061 L111.750545,51.2655061 Z" id="Fill-37" fill="#00A79D" sketch:type="MSShapeGroup" mask="url(#mask-2)"></path>
                    <path d="M115.926294,52.7187854 C115.945552,52.343336 115.854243,51.9703806 115.663469,51.6463968 C115.428512,51.2702672 115.007312,51.0521619 114.564587,51.0773279 C114.128207,51.0680324 113.71607,51.2772955 113.465706,51.6350607 C113.23007,51.9502024 113.089368,52.326332 113.06014,52.7187854 L115.926294,52.7187854 L115.926294,52.7187854 Z M116.757818,52.9046964 C116.760084,53.0475304 116.748755,53.1903644 116.723832,53.3309312 L113.06014,53.3309312 C113.06014,54.0065587 113.24593,54.5166802 113.61751,54.8612955 C113.962129,55.1775709 114.41958,55.3410364 114.886322,55.3147368 C115.37572,55.3231255 115.861041,55.2256356 116.309203,55.0290688 L116.463273,55.6321457 C115.929013,55.8663482 115.349211,55.9788016 114.766238,55.9608907 C114.077455,55.9948988 113.407703,55.7296356 112.928727,55.2331174 C112.459494,54.7023644 112.215474,54.0092794 112.249007,53.3014575 C112.220006,52.5641619 112.454509,51.8406964 112.910601,51.2609717 C113.334747,50.7354332 113.980481,50.439336 114.655217,50.4606478 C115.33471,50.4227854 115.980671,50.7581053 116.340923,51.3357895 C116.628218,51.8075951 116.772772,52.3524049 116.757818,52.9046964 L116.757818,52.9046964 Z" id="Fill-38" fill="#00A79D" sketch:type="MSShapeGroup" mask="url(#mask-2)"></path>
                    <path d="M124.785315,21.8529231 L118.101399,21.8529231 L118.101399,3.75381377 L124.785315,3.75381377 L124.785315,21.8529231 Z" id="Fill-39" fill="#09564F" sketch:type="MSShapeGroup" mask="url(#mask-2)"></path>
                    <path d="M130.615049,16.0196275 L112.527692,16.0196275 L112.527692,9.33136842 L130.615049,9.33136842 L130.615049,16.0196275 Z" id="Fill-40" fill="#09564F" sketch:type="MSShapeGroup" mask="url(#mask-2)"></path>
                    <text id="lite" sketch:type="MSTextLayer" mask="url(#mask-2)" font-family="Myriad Pro" font-size="30.8288626" font-weight="normal" fill="#00A79D">
                        <tspan x="121.573682" y="38.0965847">li</tspan>
                        <tspan x="136.063247" y="38.0965847" letter-spacing="-0.8237982">t</tspan>
                        <tspan x="145.258829" y="38.0965847">e</tspan>
                    </text>
                </g>
            </g>
        </g>
    </g>
</svg>