<?xml version="1.0" encoding="UTF-8" standalone="no"?>
<svg width="46px" height="46px" viewBox="0 0 46 46" version="1.1" xmlns="http://www.w3.org/2000/svg" xmlns:xlink="http://www.w3.org/1999/xlink" xmlns:sketch="http://www.bohemiancoding.com/sketch/ns">
    <!-- Generator: Sketch 3.4.4 (17249) - http://www.bohemiancoding.com/sketch -->
    <title>Oval 11 + Page 1 Copy 3</title>
    <desc>Created with Sketch.</desc>
    <defs>
        <path id="path-1" d="M0,0 L26,0 L26,26 L0,26"></path>
        <path id="path-3" d="M0,0 L26,0 L26,26 L0,26 L0,0 Z"></path>
    </defs>
    <g id="Page-1" stroke="none" stroke-width="1" fill="none" fill-rule="evenodd" sketch:type="MSPage">
        <g id="Recetas" sketch:type="MSArtboardGroup" transform="translate(-1125.000000, -793.000000)">
            <g id="Oval-11-+-Page-1-Copy-3" sketch:type="MSLayerGroup" transform="translate(1125.000000, 793.000000)">
                <path d="M23,46 C35.7025492,46 46,35.7025492 46,23 C46,10.2974508 35.7025492,0 23,0 C10.2974508,0 0,10.2974508 0,23 C0,35.7025492 10.2974508,46 23,46 Z" id="Oval-11" fill="#FFFFFF" sketch:type="MSShapeGroup"></path>
                <g id="Page-1" transform="translate(10.000000, 10.000000)">
                    <g id="Group-3">
                        <mask id="mask-2" sketch:name="Clip 2" fill="white">
                            <use xlink:href="#path-1"></use>
                        </mask>
                        <g id="Clip-2"></g>
                        <path d="M12.4878448,9.99088851 C14.5505115,9.99088851 16.613477,9.97579655 18.6759943,9.99791149 C19.5667184,10.0074747 19.9939253,9.62180805 19.9915345,8.73063563 C19.9858563,6.60027931 19.9806264,4.46992299 19.9951207,2.33971609 C20.0013966,1.41118736 19.5921207,0.983532184 18.6477529,0.986968966 C14.5560402,1.00176207 10.464477,1.00131379 6.37291379,0.987267816 C5.44602874,0.98398046 5.00104023,1.36621034 5.01000575,2.31775057 C5.02972989,4.41418736 5.00582184,6.51092299 5.01941954,8.60735977 C5.02674138,9.73626782 5.27687931,9.98207241 6.40115517,9.98819885 C8.43005172,9.99925632 10.4589483,9.99133678 12.4878448,9.99088851 M13.0024655,25.0072333 C15.8088218,25.0072333 18.6151782,25.0108195 21.4215345,25.0057391 C22.7182471,25.0033483 22.9872126,24.7445437 22.9897529,23.4845897 C22.9958793,20.5090839 22.9949828,17.5335782 22.9902011,14.5582218 C22.9881092,13.2737621 22.7146609,12.984923 21.4675575,12.9837276 C15.8209253,12.9783483 10.1742931,12.9784977 4.52766092,12.9837276 C3.31417816,12.984923 3.01383333,13.2786931 3.01084483,14.4615437 C3.00337356,17.4708195 3.00412069,20.4800954 3.01039655,23.4893713 C3.01293678,24.7461874 3.28235057,25.0034977 4.58324713,25.0057391 C7.38960345,25.0106701 10.1959598,25.0072333 13.0024655,25.0072333 M25.9999253,5.2813023 L25.9999253,23.7656586 C25.5317759,24.7869805 24.7868908,25.5317161 23.765569,26.0000149 L2.23443103,26.0000149 C1.2131092,25.5317161 0.468224138,24.7869805 -7.47126436e-05,23.7656586 L-7.47126436e-05,2.23437126 C0.468224138,1.21304943 1.2131092,0.468313793 2.23443103,1.49425287e-05 L20.7187874,1.49425287e-05 C22.8313621,1.40819885 24.5917414,3.16857816 25.9999253,5.2813023" id="Fill-1" fill="#00B0B3" sketch:type="MSShapeGroup" mask="url(#mask-2)"></path>
                    </g>
                    <mask id="mask-4" sketch:name="Clip 5" fill="white">
                        <use xlink:href="#path-3"></use>
                    </mask>
                    <g id="Clip-5"></g>
                    <path d="M15.0841839,2.07477011 L17.9383563,2.07477011 L17.9383563,8.9026092 L15.0841839,8.9026092 L15.0841839,2.07477011 Z" id="Fill-4" fill="#00B0B3" sketch:type="MSShapeGroup" mask="url(#mask-4)"></path>
                </g>
            </g>
        </g>
    </g>
</svg>